<?xml version="1.0" encoding="UTF-8"?>
<svg width="100px" height="100px" viewBox="0 0 100 100" version="1.1" xmlns="http://www.w3.org/2000/svg" xmlns:xlink="http://www.w3.org/1999/xlink">
    <title>bottom_tabbar_3_n</title>
    <g id="bottom_tabbar_3_n" class="bottom_tabbar__icon" stroke="none" stroke-width="1" fill="none" fill-rule="evenodd">
        <path d="M5.00009327,43.0439126 C5.02509626,57.516781 13.2861029,70.715965 26.2995074,77.0753161 C39.3129119,83.4346672 54.8136748,81.8473126 66.2650626,72.9826462 L87.1616093,93.8591007 C89.0459092,95.4712223 91.854756,95.362833 93.6089691,93.6103066 C95.3631822,91.8577802 95.4716758,89.0516341 93.8580027,87.169146 L72.961456,66.2926915 C83.1826547,53.1902024 83.6882566,34.9699272 74.209371,21.3218232 C64.7304853,7.67371919 47.469549,1.76894873 31.6063209,6.74780325 C15.7430929,11.7266578 4.9634237,26.4322911 5.00009327,43.0439126 Z M42.9939083,14.5760201 C58.7314229,14.5760201 71.4891993,27.3215297 71.4891993,43.0439126 C71.4891993,58.7662955 58.7314229,71.5118051 42.9939083,71.5118051 C27.2563937,71.5118051 14.4986173,58.7662955 14.4986173,43.0439126 C14.4986173,27.3215297 27.2563937,14.5760201 42.9939083,14.5760201 Z" id="Shape" fill="inherit" fill-rule="nonzero"></path>
    </g>
</svg>