<?xml version="1.0" encoding="UTF-8"?>
<svg width="100px" height="100px" viewBox="0 0 100 100" version="1.1" xmlns="http://www.w3.org/2000/svg" xmlns:xlink="http://www.w3.org/1999/xlink">
    <title>bottom_tabbar_4_p</title>
    <g id="bottom_tabbar_4_p" class="bottom_tabbar__icon--focus" stroke="none" stroke-width="1" fill="inherit" fill-rule="evenodd">
        <path d="M50,35 C41.7157288,35 35,41.7157288 35,50 C35,58.2842712 41.7157288,65 50,65 C58.2842712,65 65,58.2842712 65,50 C65,41.7157288 58.2842712,35 50,35 Z" id="Path" fill="inherit" fill-rule="nonzero"></path>
        <path d="M85,35 C76.7157288,35 70,41.7157288 70,50 C70,58.2842712 76.7157288,65 85,65 C93.2842712,65 100,58.2842712 100,50 C100,41.7157288 93.2842712,35 85,35 Z" id="Path" fill="inherit" fill-rule="nonzero"></path>
        <path d="M15,35 C6.71572875,35 0,41.7157288 0,50 C0,58.2842712 6.71572875,65 15,65 C23.2842712,65 30,58.2842712 30,50 C30,41.7157288 23.2842712,35 15,35 Z" id="Path" fill="inherit" fill-rule="nonzero"></path>
    </g>
</svg>