<?xml version="1.0" encoding="UTF-8"?>
<svg width="100px" height="100px" viewBox="0 0 100 100" version="1.1" xmlns="http://www.w3.org/2000/svg" xmlns:xlink="http://www.w3.org/1999/xlink">
    <title>bottom_tabbar_1_n</title>
    <g id="bottom_tabbar_1_n" stroke="none" stroke-width="1" fill="none" fill-rule="evenodd">
        <g id="Group" class="bottom_tabbar__icon" fill="inherit" fill-rule="nonzero">
            <path d="M50,60 C33.5,60 20,46.5 20,30 C20,13.5 33.5,0 50,0 C66.5,0 80,13.5 80,30 C80,46.5 66.5,60 50,60 Z M50,10 C39,10 30,19 30,30 C30,41 39,50 50,50 C61,50 70,41 70,30 C70,19 61,10 50,10 Z" id="Shape"></path>
            <path d="M95,100 C92,100 90,98 90,95 C90,75.5 74.5,60 55,60 L45,60 C25.5,60 10,75.5 10,95 C10,98 8,100 5,100 C2,100 0,98 0,95 C0,70 20,50 45,50 L55,50 C80,50 100,70 100,95 C100,98 98,100 95,100 Z" id="Path"></path>
        </g>
    </g>
</svg>