<?xml version="1.0" encoding="UTF-8"?>
<svg width="100px" height="100px" viewBox="0 0 100 100" version="1.1" xmlns="http://www.w3.org/2000/svg" xmlns:xlink="http://www.w3.org/1999/xlink">
    <title>bottom_tabbar_3_p</title>
    <g id="bottom_tabbar_3_p" class="bottom_tabbar__icon--focus" stroke="none" stroke-width="1" fill="inherit" fill-rule="evenodd">
        <path d="M76.6733933,19.6105096 C86.2912401,33.4586959 86.3829616,51.6696833 77.1898751,65.5491692 L76.897,65.984 L96.0602853,85.1287096 L96.1357056,85.2166938 C98.7700219,88.2898498 98.5928707,92.8717986 95.7292689,95.732647 C92.9322122,98.5270143 88.4928847,98.7593767 85.4232252,96.3136381 L85.1232802,96.063333 L65.952,76.91 L65.5742575,77.1628769 C53.8205112,84.9167514 38.8336918,86.1187256 25.9399497,80.2235069 L25.4513309,79.9962251 L24.982338,79.7706945 C10.9411077,72.9090687 2.02707809,58.6665496 1.99999993,43.050535 C1.96053122,25.1252817 13.5921456,9.25746367 30.7079466,3.8854749 C47.8228433,-1.48623004 66.4458799,4.88449945 76.6733933,19.6105096 Z M42.9939083,17.5760201 C28.9126022,17.5760201 17.4986173,28.9790304 17.4986173,43.0439126 C17.4986173,57.1087949 28.9126022,68.5118051 42.9939083,68.5118051 C57.0752144,68.5118051 68.4891993,57.1087949 68.4891993,43.0439126 C68.4891993,28.9790304 57.0752144,17.5760201 42.9939083,17.5760201 Z" id="Combined-Shape" fill="inherit" fill-rule="nonzero"></path>
    </g>
</svg>