<?xml version="1.0" encoding="UTF-8"?>
<svg width="100px" height="100px" viewBox="0 0 100 100" version="1.1" xmlns="http://www.w3.org/2000/svg" xmlns:xlink="http://www.w3.org/1999/xlink">
    <title>bottom_tabbar_2_n</title>
    <g id="bottom_tabbar_2_n" class="bottom_tabbar__icon" stroke="none" stroke-width="1" fill="none" fill-rule="evenodd">
        <path d="M50,-7.10542736e-15 C22.4270833,-7.10542736e-15 0,20.5624997 0,45.8333327 C0.0624403114,56.931035 4.37123033,67.5837354 12.0416667,75.6041657 C12.0416667,75.9479157 11.9895833,76.2916657 11.96875,76.6458323 C11.6145833,81.5312489 11.2083333,87.0624989 5.38541667,92.8854155 C4.1923742,94.0771303 3.83524971,95.8704471 4.48073987,97.4282909 C5.12623004,98.9861346 6.64705549,100.001326 8.33333333,100 L8.33333333,100 C9.05208333,100 25.5,99.864582 39.28125,90.5624988 C42.8085223,91.2863177 46.3992425,91.6562072 50,91.6666655 C77.5729167,91.6666655 100,71.1041657 100,45.8333327 C100,20.5624997 77.5729167,-7.10542736e-15 50,-7.10542736e-15 Z M39.89675,81.4470886 C38.7040271,81.1633309 37.4469309,81.4217045 36.462625,82.1529114 C30.8909694,86.0776164 24.5388906,88.7541449 17.8395,90 C19.7345175,85.8159618 20.7750822,81.2953744 20.900125,76.7035443 C20.962375,75.7693671 21.024625,74.8974684 21.13875,74.1189873 C21.3144446,72.8218517 20.8684181,71.5177814 19.93525,70.6002532 C13.0294432,64.0147197 9.08440101,54.9115078 9,45.3670886 C9,24.7632911 27.61275,8 50.5,8 C73.38725,8 92,24.7632911 92,45.3670886 C92,69.0744304 67.214125,87.9240506 39.89675,81.4470886 Z" id="Shape" fill="inherit" fill-rule="nonzero"></path>
    </g>
</svg>