<?xml version="1.0" encoding="UTF-8"?>
<svg width="100px" height="100px" viewBox="0 0 100 100" version="1.1" xmlns="http://www.w3.org/2000/svg" xmlns:xlink="http://www.w3.org/1999/xlink">
    <title>bottom_tabbar_3_n</title>
    <g id="bottom_tabbar_3_n" stroke="none" stroke-width="1" fill="none" fill-rule="evenodd">
        <path d="M2.00009948,42.5801735 C2.02676934,58.0178998 10.8385097,72.0970294 24.7194746,78.8803372 C38.6004394,85.663645 55.1345865,83.9704668 67.3494001,74.5148226 L89.6390499,96.7830408 C91.6489698,98.5026371 94.6450731,98.3870219 96.5162337,96.5176604 C98.3873944,94.6482989 98.5031208,91.6550764 96.7818695,89.647089 L74.4922197,67.3788709 C85.3948317,53.4028826 85.9341403,33.9679224 75.823329,19.4099447 C65.7125177,4.85196713 47.3008522,-1.44645468 30.3800756,3.86432347 C13.4592991,9.17510162 1.96098528,24.8611106 2.00009948,42.5801735 Z M42.5268355,12.2144215 C59.3135178,12.2144215 72.9218125,25.8096317 72.9218125,42.5801735 C72.9218125,59.3507152 59.3135178,72.9459254 42.5268355,72.9459254 C25.7401532,72.9459254 12.1318585,59.3507152 12.1318585,42.5801735 C12.1318585,25.8096317 25.7401532,12.2144215 42.5268355,12.2144215 Z" id="Shape" fill="inherit" fill-rule="nonzero"></path>
    </g>
</svg>