<?xml version="1.0" encoding="UTF-8"?>
<svg width="100px" height="100px" viewBox="0 0 100 100" version="1.1" xmlns="http://www.w3.org/2000/svg" xmlns:xlink="http://www.w3.org/1999/xlink">
    <title>bottom_tabbar_4_n</title>
    <g id="bottom_tabbar_4_n" class="bottom_tabbar__icon" stroke="none" stroke-width="1" fill="none" fill-rule="evenodd">
        <path d="M50,35 C41.7157288,35 35,41.7157288 35,50 C35,58.2842712 41.7157288,65 50,65 C58.2842712,65 65,58.2842712 65,50 C65,41.7157288 58.2842712,35 50,35 Z M50,55 C47.2385763,55 45,52.7614237 45,50 C45,47.2385763 47.2385763,45 50,45 C52.7614237,45 55,47.2385763 55,50 C55,52.7614237 52.7614237,55 50,55 Z M85,35 C76.7157288,35 70,41.7157288 70,50 C70,58.2842712 76.7157288,65 85,65 C93.2842712,65 100,58.2842712 100,50 C100,41.7157288 93.2842712,35 85,35 Z M85,55 C82.2385763,55 80,52.7614237 80,50 C80,47.2385763 82.2385763,45 85,45 C87.7614237,45 90,47.2385763 90,50 C90,52.7614237 87.7614237,55 85,55 Z M15,35 C6.71572875,35 0,41.7157288 0,50 C0,58.2842712 6.71572875,65 15,65 C23.2842712,65 30,58.2842712 30,50 C30,41.7157288 23.2842712,35 15,35 Z M15,55 C12.2385763,55 10,52.7614237 10,50 C10,47.2385763 12.2385763,45 15,45 C17.7614237,45 20,47.2385763 20,50 C20,52.7614237 17.7614237,55 15,55 Z" id="Shape" fill="inherit" fill-rule="nonzero"></path>
    </g>
</svg>