<?xml version="1.0" encoding="UTF-8"?>
<svg width="100px" height="100px" viewBox="0 0 100 100" version="1.1" xmlns="http://www.w3.org/2000/svg" xmlns:xlink="http://www.w3.org/1999/xlink">
    <title>bottom_tabbar_2_p</title>
    <g id="bottom_tabbar_2_p" class="bottom_tabbar__icon--focus" stroke="none" stroke-width="1" fill="inherit" fill-rule="evenodd">
        <path d="M50,0 C22.4270833,0 0,20.5624997 0,45.8333327 C0.0624403114,56.931035 4.37123033,67.5837354 12.0416667,75.6041657 C12.0416667,75.9479157 11.9895833,76.2916657 11.96875,76.6458323 C11.6145833,81.5312489 11.2083333,87.0624989 5.38541667,92.8854155 C4.1923742,94.0771303 3.83524971,95.8704471 4.48073987,97.4282909 C5.12623004,98.9861346 6.64705549,100.001326 8.33333333,100 C9.05208333,100 25.5,99.864582 39.28125,90.5624988 C42.8085223,91.2863177 46.3992425,91.6562072 50,91.6666655 C77.5729167,91.6666655 100,71.1041657 100,45.8333327 C100,20.5624997 77.5729167,0 50,0 Z" id="Path" fill="inherit" fill-rule="nonzero"></path>
    </g>
</svg>