<?xml version="1.0" encoding="UTF-8"?>
<svg width="100px" height="100px" viewBox="0 0 100 100" version="1.1" xmlns="http://www.w3.org/2000/svg" xmlns:xlink="http://www.w3.org/1999/xlink">
    <title>icon_back</title>
    <g id="icon_back" stroke="none" stroke-width="1" fill="none" fill-rule="evenodd">
        <path d="M95.1956324,44.4022326 L19.7974948,44.4022326 L50.5025996,13.8722394 C51.9749272,12.4186179 52.5554681,10.2944184 52.0255382,8.29980626 C51.4956083,6.30519417 49.9357165,4.74319851 47.933459,4.20220793 C45.9312015,3.66121735 43.7907688,4.22342119 42.3184412,5.6770427 L1.68786772,46.0758995 C-0.562622572,48.3269091 -0.562622572,51.9623739 1.68786772,54.2133835 L42.3184412,94.6122403 C44.6213838,96.5731823 48.0542835,96.4413405 50.1982373,94.3096137 C52.342191,92.177887 52.4747891,88.7645651 50.5025996,86.4747563 L19.7974948,55.9447631 L95.1956324,55.9447631 C98.4012961,55.9447631 101,53.3608796 101,50.1734978 C101,46.986116 98.4012961,44.4022326 95.1956324,44.4022326 Z" id="Path" fill="inherit" fill-rule="nonzero"></path>
    </g>
</svg>