<?xml version="1.0" encoding="UTF-8"?>
<svg width="100px" height="100px" viewBox="0 0 100 100" version="1.1" xmlns="http://www.w3.org/2000/svg" xmlns:xlink="http://www.w3.org/1999/xlink">
    <title>icon_gear</title>
    <g id="icon_gear" stroke="none" stroke-width="1" fill="none" fill-rule="evenodd">
        <path d="M51.7269788,0.499999233 C57.9757005,0.448377618 63.3251548,4.92637977 64.3953883,11.0454535 L64.4453183,11.3527613 L65.108,15.669 L65.6329379,15.9039296 C67.5521492,16.7844182 69.3923923,17.8266106 71.1337992,19.018975 L71.782155,19.4731285 L72.24,19.807 L76.2790597,18.2241803 C81.969713,15.9922059 88.4107703,18.1126414 91.6763935,23.2012647 L91.8453151,23.4718202 L92.0082454,23.7478123 L93.7488595,26.7479673 C96.8641072,32.1192516 95.6508602,38.9358918 90.9263684,42.9001205 L87.318,45.824 L87.3793663,46.4023949 C87.5810469,48.5118888 87.6034558,50.6342148 87.4465932,52.7465603 L87.3793663,53.5381775 L87.318,54.116 L90.6603226,56.8231475 C95.4769297,60.6280162 96.8702533,67.2994869 94.0653736,72.6812937 L93.9110917,72.9683474 L92.0124232,76.2455121 C88.9313211,81.6250506 82.4361838,83.9936239 76.631343,81.8997221 L76.3317293,81.7874297 L72.239,80.191 L71.7727572,80.5307776 C70.0458373,81.7623556 68.2170141,82.843607 66.3064596,83.7628944 L65.58621,84.1000123 L65.058,84.334 L64.3960963,88.6425948 C63.4873029,94.6953817 58.41661,99.2173806 52.3637375,99.4872289 L52.0497983,99.4973806 L51.739478,99.4999992 L48.2651633,99.4999992 C42.0332947,99.5276924 36.7136329,95.0459643 35.662085,88.9469147 L34.94,84.321 L34.4150215,84.0866422 C32.4958103,83.2061536 30.6555671,82.1639613 28.9141603,80.9715968 L28.2658044,80.5174434 L27.807,80.181 L23.7204079,81.7757932 C18.0260494,84.0163894 11.5763709,81.8887538 8.32046034,76.7903461 L8.15206695,76.5192733 L7.98969951,76.2427596 L6.24971236,73.2436845 C3.13031496,67.8755476 4.34456171,61.0579367 9.07144917,57.1001075 L12.679,54.176 L12.6185786,53.5981769 C12.4168981,51.4886829 12.3944891,49.3663569 12.5513517,47.2540114 L12.6185786,46.4623942 L12.679,45.884 L9.33633551,43.1764065 C4.52344209,39.365915 3.13129582,32.6953357 5.93293545,27.3097062 L6.0870396,27.0224432 L6.24919399,26.7377802 L7.98549716,23.7451026 C11.0773796,18.3463288 17.603065,15.9796011 23.4162071,18.0994843 L23.7162302,18.213142 L27.806,19.808 L28.2658044,19.4731285 C29.9821918,18.2434012 31.799899,17.1624046 33.6990577,16.2416702 L34.4150215,15.9039296 L34.939,15.669 L35.6018487,11.357977 C36.510632,5.30525656 41.5812516,0.783231206 47.6394791,0.513095802 L47.9537002,0.502929044 L48.2643073,0.499999233 L51.7269788,0.499999233 Z M51.7464426,11.5006424 L48.2515023,11.5006424 C47.4174188,11.4967892 46.7001842,12.0702829 46.5095224,12.8753975 L46.4800441,13.0289864 L45.3299162,20.497563 C45.0296171,22.45943 43.697201,24.1007949 41.8533082,24.804114 L41.6296193,24.8839701 C38.2326005,26.0133229 35.1027038,27.8256698 32.4266652,30.2146905 C30.9475912,31.5212832 28.8876869,31.931408 27.030804,31.3063472 L26.7898177,31.2189356 L19.7160759,28.4743727 C18.9436071,28.1671999 18.0692111,28.4396899 17.5997621,29.1208067 L17.5166097,29.2532629 L15.7741381,32.2566093 C15.3526041,32.9788309 15.4899175,33.8890577 16.0896175,34.4578431 L16.2074562,34.5603599 L22.0778195,39.2692341 C23.6880295,40.5578222 24.4420363,42.6386788 24.0306576,44.6605395 C23.3109483,48.1840167 23.3109483,51.816555 24.0308866,55.3411554 C24.4255903,57.2810634 23.7464858,59.2763772 22.2681026,60.5720073 L22.0791617,60.7302623 L16.1991788,65.4468037 C15.5420648,65.9663279 15.341217,66.8671356 15.7018749,67.6183673 L15.7761041,67.7573408 L17.5245831,70.7712227 C17.9342751,71.4950954 18.7877022,71.8304123 19.5800419,71.5928983 L19.7277665,71.5416066 L26.7709454,68.8091054 C27.4112842,68.5506414 28.0956061,68.4185363 28.7812185,68.4200733 C30.123046,68.4186493 31.4191433,68.9075954 32.4325406,69.8010988 C35.1027038,72.1849018 38.2326005,73.9972487 41.6302664,75.1268168 C43.5136221,75.7538972 44.906925,77.3439241 45.2887352,79.2777025 L45.3296639,79.5113663 L46.4813639,86.9803268 C46.6033614,87.8048162 47.2787087,88.4270371 48.1023877,88.4939426 L48.2584669,88.4999293 L51.7464426,88.4999293 C52.5805261,88.5037825 53.2977608,87.9302888 53.4883843,87.1254228 L53.517855,86.9718834 L54.6680287,79.4930088 C54.9683278,77.5311419 56.3007439,75.889777 58.1432294,75.1869266 L58.3667426,75.107129 C61.7631609,73.9737787 64.8933166,72.1612818 67.5712797,69.7758813 C69.0503537,68.4692886 71.1102581,68.0591638 72.9671409,68.6842246 L73.2081272,68.7716363 L80.2609649,71.5080671 C81.0274942,71.7996806 81.8865229,71.5259389 82.3493108,70.8572707 L82.4313207,70.727309 L84.1739643,67.723668 C84.5920868,67.0076656 84.4577152,66.1057962 83.8650828,65.5389581 L83.7404741,65.4302119 L77.8701109,60.7213377 C76.2599009,59.4327496 75.5058941,57.351893 75.9172728,55.3300323 C76.6369821,51.8065551 76.6369821,48.1740168 75.9170438,44.6494165 C75.5223401,42.7095084 76.2014446,40.7141947 77.6798278,39.4185645 L77.8687687,39.2603095 L83.7438182,34.5476854 C84.3977923,34.0261655 84.598371,33.1277447 84.2446661,32.3812827 L84.1718263,32.2432309 L82.4296664,29.2404043 C82.0202806,28.531186 81.182621,28.2007341 80.4134701,28.4211413 L80.2701784,28.468965 L73.2096605,31.2083398 C71.2904782,31.9553765 69.1146613,31.5680917 67.5654043,30.1994729 C64.8952411,27.8156699 61.7653444,26.003323 58.3676785,24.8737549 C56.4843228,24.2466746 55.09102,22.6566476 54.7092097,20.7228692 L54.668281,20.4892055 L53.5165811,13.0202449 C53.3869587,12.144225 52.6326563,11.4965471 51.7464426,11.5006424 Z" id="Combined-Shape" fill="inherit" fill-rule="nonzero"></path>
        <path d="M50,36 C57.7319865,36 64,42.2680135 64,50 C64,57.7319865 57.7319865,64 50,64 C42.2680135,64 36,57.7319865 36,50 C36,42.2680135 42.2680135,36 50,36 Z" id="Path" fill="inherit" fill-rule="nonzero"></path>
    </g>
</svg>