<?xml version="1.0" encoding="UTF-8"?>
<svg width="100px" height="100px" viewBox="0 0 100 100" version="1.1" xmlns="http://www.w3.org/2000/svg" xmlns:xlink="http://www.w3.org/1999/xlink">
    <title>icon_chats</title>
    <g id="icon_chats" stroke="none" stroke-width="1" fill="none" fill-rule="evenodd">
        <path d="M40,3 C55.33778,3 69.0019843,11.4910945 74.9332426,24.2221086 L75.1199053,24.629852 L75.259,24.945 L75.3218734,24.9708498 C88.6526309,30.3958461 97.6144696,42.4602227 97.9878377,56.122766 L97.9969632,56.5688437 L97.9999683,57.0112527 C97.9550854,64.9884257 95.0461025,72.6654519 89.8329403,78.6580287 L89.4819887,79.0550231 L89.386,79.159 L89.4079014,79.4452225 C89.764916,83.9623642 90.4799165,86.2302535 93.0543127,88.9665103 L93.2935128,89.2166269 L93.5359261,89.4624985 C94.967577,90.8925564 95.3961264,93.0445366 94.6215382,94.913949 C93.9193414,96.6086502 92.3498554,97.7748631 90.4866978,97.9734192 L90.252315,97.993167 L89.9869935,97.9999577 L89.6723314,97.9957564 L89.1981706,97.9809139 C89.1140176,97.977528 89.0273404,97.9736709 88.9381972,97.9693197 L88.3742127,97.9371019 C88.2754387,97.9306835 88.1743153,97.9237254 88.0709007,97.9162049 L87.4233858,97.8641511 C87.3110397,97.8542899 87.1965191,97.8438207 87.079882,97.8327208 C85.3368466,97.6668428 83.4718879,97.3904908 81.5311176,96.9796325 C76.8439447,95.9873647 72.3597582,94.3604911 68.3282693,91.9598191 L67.7269724,91.5938975 L67.301,91.323 L66.512035,91.4607352 C64.8993251,91.7250801 63.2718175,91.8926775 61.6369902,91.9626296 L60.8190012,91.9894644 L60,92 C46.7360731,92 34.6409217,85.6533731 27.7635133,75.5197934 L27.487,75.106 L27.0995159,75.2770884 C24.2476588,76.5009044 21.2751139,77.4006466 18.2658396,78.0227593 L17.5128043,78.1725304 L16.7585303,78.3108949 C15.2007391,78.5847993 13.7231122,78.7703101 12.3556349,78.8828339 L11.6916179,78.9323723 L11.093257,78.9673847 L10.5633997,78.9892533 L10.1048932,78.9993601 L9.93832364,78.9990488 L9.68438714,78.9902098 C7.78244082,78.87113 6.10991683,77.6792628 5.37846178,75.913949 C4.60387358,74.0445366 5.03242298,71.8925564 6.46328645,70.4632856 C9.35085407,67.575718 10.1687102,65.358378 10.5580913,60.8613554 L10.613,60.159 L10.5180113,60.0550224 C5.31837798,54.2667305 2.31182919,46.8366734 2.02249945,39.0520362 L2.00698914,38.5207312 L2,38 C2,18.6586596 19.0810575,3 40,3 Z M77.998,37.839 L78,38 C78,57.3413399 60.9189422,73 39.9941904,72.9999916 C39.7296738,72.9992232 39.4652132,72.9958923 39.2007833,72.9899928 L38.638,72.971 L38.780193,73.1219622 C45.492335,80.1002621 56.0738356,83.3711777 66.7704531,80.9991543 L67.2041535,80.8998949 C68.6390657,80.5601145 70.1514301,80.8695008 71.2956472,81.7163166 C73.9341526,83.566206 76.8299038,85.0068908 79.883618,85.9966902 L80.438,86.17 L80.3681391,85.9302484 C79.838358,84.0334003 79.520794,82.0899594 79.4242808,80.1488509 L79.4019672,79.5666372 L79.3542315,78.8961484 L79.3098533,78.3877728 L79.2785218,78.1049146 L79.2432656,77.8431006 C79.0309267,76.2827515 79.5698293,74.7145001 80.7181382,73.5910417 C85.3171614,69.2258116 87.9438876,63.1929578 88,56.8860759 C88,49.4794465 84.3033585,42.5965083 78.1126277,37.9235042 L77.998,37.839 Z M40,13 C24.5148686,13 11.9999211,24.2167173 11.9999211,37.8683076 C12.0561124,44.1929578 14.6828386,50.2258116 19.3038678,54.612251 C20.4301707,55.7145001 20.9690733,57.2827515 20.7536529,58.8648498 L20.7164337,59.1442983 L20.6832973,59.4523429 L20.6517192,59.8103436 L20.6017519,60.4877365 C20.542043,62.6701217 20.2151826,64.8317829 19.6320796,66.9256079 L19.56,67.171 L20.1152288,66.9975206 C22.9756146,66.0713631 25.6918703,64.7527328 28.1708421,63.0841446 L28.6634451,62.7457734 C29.8485699,61.8695008 31.3609343,61.5601145 32.7943659,61.8995449 C50.8986213,66.1720054 68,54.0118871 68,37.8860759 C68,24.2167173 55.4851314,13 40,13 Z" id="Combined-Shape" fill="inherit" fill-rule="nonzero"></path>
    </g>
</svg>