<?xml version="1.0" encoding="UTF-8"?>
<svg width="100px" height="100px" viewBox="0 0 100 100" version="1.1" xmlns="http://www.w3.org/2000/svg" xmlns:xlink="http://www.w3.org/1999/xlink">
    <title>icon_box</title>
    <g id="icon_box" stroke="none" stroke-width="1" fill="none" fill-rule="evenodd">
        <path d="M83.6,33 C88.2391919,33 92,36.7496152 92,41.375 L92,41.375 L92,91.625 C92,96.2503848 88.2391919,100 83.6,100 L83.6,100 L16.4,100 C11.7608081,100 8,96.2503848 8,91.625 L8,91.625 L8,41.375 C8,36.7496152 11.7608081,33 16.4,33 L16.4,33 Z M83.6,41.375 L16.4,41.375 L16.4,91.625 L83.6,91.625 L83.6,41.375 Z M66.8,50 C69.1195959,50 71,51.8804041 71,54.2 L71,54.2 L71,58.4 C71,65.3587878 65.3587878,71 58.4,71 L58.4,71 L41.6,71 C34.6412122,71 29,65.3587878 29,58.4 L29,58.4 L29,54.2 C29,51.8804041 30.8804041,50 33.2,50 C35.5195959,50 37.4,51.8804041 37.4,54.2 L37.4,54.2 L37.4,58.4 C37.4,60.7195959 39.2804041,62.6 41.6,62.6 L41.6,62.6 L58.4,62.6 C60.7195959,62.6 62.6,60.7195959 62.6,58.4 L62.6,58.4 L62.6,54.2 C62.6,51.8804041 64.4804041,50 66.8,50 Z M79.8125,17 C82.1251924,17 84,18.790861 84,21 C84,23.209139 82.1251924,25 79.8125,25 L79.8125,25 L21.1875,25 C18.8748076,25 17,23.209139 17,21 C17,18.790861 18.8748076,17 21.1875,17 L21.1875,17 Z M66.8,0 C69.1195959,0 71,1.790861 71,4 C71,6.209139 69.1195959,8 66.8,8 L66.8,8 L33.2,8 C30.8804041,8 29,6.209139 29,4 C29,1.790861 30.8804041,0 33.2,0 L33.2,0 Z" id="Combined-Shape" fill="inherit" fill-rule="nonzero"></path>
    </g>
</svg>