<?xml version="1.0" encoding="UTF-8"?>
<svg width="100px" height="100px" viewBox="0 0 100 100" version="1.1" xmlns="http://www.w3.org/2000/svg" xmlns:xlink="http://www.w3.org/1999/xlink">
    <title>icon_plask</title>
    <g id="icon_plask" stroke="none" stroke-width="1" fill="none" fill-rule="evenodd">
        <path d="M50,100 C67.1807611,99.9912098 82.0971005,88.0066181 86.0190539,71.0603491 C89.9410072,54.1140801 81.8374745,36.6613876 66.4511443,28.9166667 L66.4511443,8.33333333 L70.5639303,8.33333333 C72.8353593,8.33333333 74.6767164,6.46785312 74.6767164,4.16666667 C74.6767164,1.86548021 72.8353593,0 70.5639303,0 L29.4360697,0 C27.1646407,0 25.3232836,1.86548021 25.3232836,4.16666667 C25.3232836,6.46785312 27.1646407,8.33333333 29.4360697,8.33333333 L33.5488557,8.33333333 L33.5488557,28.9166667 C18.1625255,36.6613876 10.0589928,54.1140801 13.9809461,71.0603491 C17.9028995,88.0066181 32.8192389,99.9912098 50,100 L50,100 Z M50,92 C33.9837423,92 21,79.0162577 21,63 L79,63 C79,79.0162577 66.0162577,92 50,92 L50,92 Z M39.7337808,36.2340909 C41.2802883,35.5962382 42.293787,34.0668555 42.2971663,32.3659091 L42.2971663,9 L58.7028337,9 L58.7028337,32.3659091 C58.706213,34.0668555 59.7197117,35.5962382 61.2662192,36.2340909 C69.3609078,39.5574282 75.5235576,46.4684621 78,55 L23,55 C25.4764424,46.4684621 31.6390922,39.5574282 39.7337808,36.2340909 L39.7337808,36.2340909 Z" id="Shape" fill="inherit" fill-rule="nonzero"></path>
    </g>
</svg>