<?xml version="1.0" encoding="UTF-8"?>
<svg width="100px" height="100px" viewBox="0 0 100 100" version="1.1" xmlns="http://www.w3.org/2000/svg" xmlns:xlink="http://www.w3.org/1999/xlink">
    <title>icon_music</title>
    <g id="icon_music" stroke="none" stroke-width="1" fill="none" fill-rule="evenodd">
        <path d="M100,59.0921184 L100,4.54827619 C100,3.1624848 99.3695172,1.8519887 98.2852082,0.98899275 C97.2008992,0.125996796 95.7821154,-0.195214401 94.4318173,0.11658901 L35.3409085,13.7525496 C33.2777394,14.2289643 31.8168235,16.0668364 31.8181812,18.1842367 L31.8181812,68.1827587 L15.9090904,68.1827587 C7.12274229,68.182759 0,75.305291 0,84.0913794 C0,92.8774677 7.12274229,100 15.9090904,100 L25,100 C29.2193526,100 33.2658921,98.323918 36.2494254,95.3404729 C39.2329587,92.3570278 40.9090902,88.3106079 40.9090902,84.0913794 L40.9090902,44.5243672 L90.90909,32.9565273 L90.90909,54.5467982 L75,54.5467982 C66.2136509,54.5467982 59.0909083,61.6693303 59.0909083,70.4554188 C59.0909083,79.2415074 66.2136509,86.3640395 75,86.3640395 L84.0909082,86.3640395 C92.8772565,86.3640395 100,79.2415074 100,70.4554188 L100,59.0921184 Z M32,84 C32,87.8659932 28.9107648,91 25.1,91 L15.9,91 C12.0892352,91 9,87.8659932 9,84 C9,80.1340068 12.0892352,77 15.9,77 L32,77 L32,84 Z M41,35 L41,21.5681818 L91,10 L91,23.4318182 L41,35 Z M91,71 C91,74.8659932 87.9107648,78 84.1,78 L74.9,78 C71.0892352,78 68,74.8659932 68,71 C68,67.1340068 71.0892352,64 74.9,64 L91,64 L91,71 Z" id="Shape" fill="inherit" fill-rule="nonzero"></path>
    </g>
</svg>