<?xml version="1.0" encoding="UTF-8"?>
<svg width="100px" height="100px" viewBox="0 0 100 100" version="1.1" xmlns="http://www.w3.org/2000/svg" xmlns:xlink="http://www.w3.org/1999/xlink">
    <title>icon_call</title>
    <g id="icon_call" stroke="none" stroke-width="1" fill="none" fill-rule="evenodd">
        <path d="M99.1289494,80.8697457 C100.236185,79.3951931 100.292817,77.3825706 99.2702514,75.8480885 C93.0867828,66.5532375 83.6560034,59.9016889 72.8250306,57.1962188 L70.651153,56.6527494 C69.1694713,56.2811691 67.6014817,56.7144294 66.5207856,57.7940352 L60.6947937,63.5874189 C58.3636974,65.8290573 54.6782,65.8290573 52.3471038,63.5874189 L36.4017117,47.6528962 C34.1081479,45.3429578 34.1081479,41.6151447 36.4017117,39.3052063 L42.2059648,33.5118226 C43.2970278,32.4243398 43.7311843,30.8407023 43.3472506,29.348847 L42.8037812,27.1749694 C40.0983111,16.3439966 33.4467625,6.91321716 24.1519115,0.729748602 C22.6174294,-0.292817078 20.6048069,-0.236184843 19.1302543,0.871050645 L16.9563767,2.50145883 C6.30767396,10.5283684 0.0324375515,23.0788412 2.7000624e-13,36.4139491 C-0.0279510046,47.6625052 4.44115457,58.4556691 12.4129726,66.391721 L33.608279,87.5870274 C41.5443309,95.5588454 52.3374948,100.027951 63.5860509,100 C76.9219613,99.9709448 89.4738559,93.6949975 97.4985412,83.0436233 L99.1289494,80.8697457 Z M63.2133855,92 C54.2188799,92.0275267 45.5878462,88.4522627 39.2475655,82.072393 L17.927607,60.7524345 C11.5477373,54.4121538 7.97247333,45.7811201 8,36.7866145 C8.02476467,26.3159975 12.8628325,16.4382758 21.1201341,10 C27.3320278,14.9387956 31.7589386,21.7730551 33.7262429,29.4612955 L29.6918507,33.5066209 C23.9644872,39.2467418 23.9644872,48.5397929 29.6918507,54.2799138 L45.7310195,70.3081493 C51.5374685,75.8728195 60.6978634,75.8728195 66.5043124,70.3081493 L70.5933711,66.2300239 C78.2676112,68.2198224 85.0819803,72.6616394 90,78.8798659 C83.5617242,87.1371675 73.6840025,91.9752353 63.2133855,92 Z" id="Shape" fill="inherit" fill-rule="nonzero"></path>
    </g>
</svg>