<?xml version="1.0" encoding="UTF-8"?>
<svg width="100px" height="100px" viewBox="0 0 100 100" version="1.1" xmlns="http://www.w3.org/2000/svg" xmlns:xlink="http://www.w3.org/1999/xlink">
    <title>icon_message</title>
    <g id="icon_message" stroke="none" stroke-width="1" fill="none" fill-rule="evenodd">
        <path d="M79.1666667,0 C90.672599,0 100,9.32837275 100,20.8355037 L100,20.8355037 L100,62.5065111 C100,68.0324302 97.8050658,73.3320221 93.8980579,77.239437 C89.9910501,81.146852 84.6920102,83.3420148 79.1666667,83.3420148 L79.1666667,83.3420148 L51.9479167,83.3420148 L40.71875,96.7913324 C39.0509622,98.8201214 36.5636445,99.9970395 33.9375,100 C32.8895812,99.9984668 31.8498678,99.8151762 30.8645833,99.4582769 C27.3390835,98.2067403 24.9879004,94.865457 25,91.1240754 L25,91.1240754 L25,83.3420148 L20.8333333,83.3420148 C9.32740105,83.3420148 0,74.013642 0,62.5065111 L0,62.5065111 L0,20.8355037 C0,9.32837275 9.32740105,0 20.8333333,0 L20.8333333,0 Z M79.1666667,8.33420148 L20.8333333,8.33420148 C13.929774,8.33420148 8.33333333,13.9312251 8.33333333,20.8355037 L8.33333333,20.8355037 L8.33333333,62.5065111 C8.33333333,69.4107897 13.929774,75.0078133 20.8333333,75.0078133 L20.8333333,75.0078133 L29.21875,75.0078133 C31.5199365,75.0078133 33.3854167,76.8734879 33.3854167,79.1749141 L33.3854167,79.1749141 L33.3854167,91.1136577 C33.3614371,91.3559014 33.5153643,91.5802188 33.75,91.644963 C33.973132,91.7525635 34.2414675,91.6765272 34.375,91.4678612 L34.375,91.4678612 L46.8020833,76.5079696 C47.5929036,75.5584221 48.764343,75.0088949 50,75.0078133 L50,75.0078133 L79.1666667,75.0078133 C86.070226,75.0078133 91.6666667,69.4107897 91.6666667,62.5065111 L91.6666667,62.5065111 L91.6666667,20.8355037 C91.6666667,13.9312251 86.070226,8.33420148 79.1666667,8.33420148 L79.1666667,8.33420148 Z M72,46 C74.209139,46 76,47.790861 76,50 C76,52.209139 74.209139,54 72,54 L28,54 C25.790861,54 24,52.209139 24,50 C24,47.790861 25.790861,46 28,46 L72,46 Z M72,26 C74.209139,26 76,27.790861 76,30 C76,32.209139 74.209139,34 72,34 L28,34 C25.790861,34 24,32.209139 24,30 C24,27.790861 25.790861,26 28,26 L72,26 Z" id="Combined-Shape" fill="inherit" fill-rule="nonzero"></path>
    </g>
</svg>