<?xml version="1.0" encoding="UTF-8"?>
<svg width="100px" height="100px" viewBox="0 0 100 100" version="1.1" xmlns="http://www.w3.org/2000/svg" xmlns:xlink="http://www.w3.org/1999/xlink">
    <title>icon_alert</title>
    <g id="icon_alert" stroke="none" stroke-width="1" fill="none" fill-rule="evenodd">
        <g id="Group" transform="translate(50.000000, 50.000000) rotate(-180.000000) translate(-50.000000, -50.000000) translate(0.000000, -0.000000)" fill="inherit" fill-rule="nonzero">
            <path d="M50,-2.55795385e-13 C22.3857625,-2.55795385e-13 0,22.3857625 0,50 C0,77.6142375 22.3857625,100 50,100 C77.6142375,100 100,77.6142375 100,50 C100,36.7391755 94.732158,24.0214799 85.3553391,14.6446609 C75.9785201,5.26784202 63.2608245,-2.55795385e-13 50,-2.55795385e-13 Z M50,90 C27.90861,90 10,72.09139 10,50 C10,27.90861 27.90861,10 50,10 C72.09139,10 90,27.90861 90,50 C90,60.6086596 85.7857264,70.7828161 78.2842712,78.2842712 C70.7828161,85.7857264 60.6086596,90 50,90 Z" id="Shape"></path>
            <path d="M50,40 C47.2385763,40 45,42.2385763 45,45 L45,70 C45,72.7614237 47.2385763,75 50,75 C52.7614237,75 55,72.7614237 55,70 L55,45 C55,42.2385763 52.7614237,40 50,40 Z" id="Path"></path>
            <path d="M46.4498695,26.4747458 C45.5363358,27.4300117 45.0184984,28.694166 45,30.0139899 C44.992401,31.3389781 45.5140752,32.6124987 46.4498695,33.5532339 C46.9358024,33.9935504 47.4937908,34.3476104 48.0996257,34.6000525 C49.3096463,35.1333158 50.6890437,35.1333158 51.8990643,34.6000525 C52.5048993,34.3476104 53.0628877,33.9935504 53.5488206,33.5532339 C53.9888647,33.0675268 54.3437717,32.5114235 54.5986655,31.9082331 C54.8785309,31.3166341 55.0155044,30.6678853 54.9986064,30.0139899 C55.0104178,27.9888191 53.7922657,26.1578088 51.9164693,25.3812144 C50.0406729,24.60462 47.8801104,25.0368161 46.4498695,26.4747458 L46.4498695,26.4747458 Z" id="Path"></path>
        </g>
    </g>
</svg>