<?xml version="1.0" encoding="UTF-8"?>
<svg width="100px" height="100px" viewBox="0 0 100 100" version="1.1" xmlns="http://www.w3.org/2000/svg" xmlns:xlink="http://www.w3.org/1999/xlink">
    <title>icon_brush</title>
    <g id="icon_brush" stroke="none" stroke-width="1" fill="none" fill-rule="evenodd">
        <path d="M84.4289768,0 C79.8930143,0.0161276633 75.5876626,2.00020051 72.6302251,5.43732178 L53.9627654,27.2074415 L43.3418042,16.5827898 C37.8219652,11.0841551 28.8913178,11.0841551 23.3714788,16.5827898 L17.8994429,22.0513605 C17.1165684,22.8328693 16.6766809,23.893345 16.6766809,24.9991806 C16.6766809,26.1050162 17.1165684,27.1654918 17.8994429,27.9470006 L23.2880954,33.3322408 L1.222762,55.3836013 C0.439887539,56.1651101 0,57.2255858 0,58.3314214 C0,59.437257 0.439887539,60.4977326 1.222762,61.2792414 L38.745294,98.7780123 C39.527298,99.560391 40.5884456,100 41.694982,100 C42.8015183,100 43.8626659,99.560391 44.6446699,98.7780123 L66.7100033,76.7266518 L72.0986558,82.1118919 C72.8806598,82.8942706 73.9418074,83.3338796 75.0483438,83.3338796 C76.1548801,83.3338796 77.2160277,82.8942706 77.9980317,82.1118919 L83.4700676,76.6433212 C88.9721866,71.1269776 88.9721866,62.2019855 83.4700676,56.685642 L72.8386836,46.0714066 L94.622598,27.4157681 C99.5361603,23.1467247 101.288038,16.281415 99.0202393,10.1821645 C96.7524404,4.08291392 90.9397538,0.0266692446 84.4289768,0 Z M41.7859491,90 L35.0704601,83.2949877 L44.6879622,73.6879622 C46.325416,72.0505082 46.325416,69.3956709 44.6879621,67.758217 C43.0505082,66.1207631 40.3956709,66.1207631 38.7582169,67.7582169 L29.1511915,77.3652424 L22.4357025,70.6602301 L27.8520953,65.2333607 C29.3522899,63.5776685 29.2897156,61.0361871 27.7098579,59.4563294 C26.1300003,57.8764717 23.5885189,57.8138974 21.9328266,59.314092 L16.5164339,64.7304848 L10,58.2140509 L29.2140509,39 L61,70.7859491 L41.7859491,90 Z M78.2946122,70.5022389 L75.7488173,73 L70.3100735,67.6638741 L32.4387437,30.5070977 L27,25.1709717 L29.5457949,22.6732107 C31.8247965,20.4422631 35.5143275,20.4422631 37.793329,22.6732107 L51.7320823,36.3489686 L64.3558589,48.7345608 L78.2946122,62.4103187 C80.5684626,64.6463202 80.5684626,68.2662374 78.2946122,70.5022389 L78.2946122,70.5022389 Z M89.1405307,21.0254937 L67.0053338,40 L60,32.9946662 L78.9745063,10.8594693 C80.6863689,8.61150934 83.5477546,7.56212267 86.3070842,8.17031434 C89.0664139,8.778506 91.221494,10.9335861 91.8296857,13.6929158 C92.4378773,16.4522454 91.3884907,19.3136311 89.1405307,21.0254937 Z" id="Shape" fill="inherit" fill-rule="nonzero"></path>
    </g>
</svg>