<?xml version="1.0" encoding="UTF-8"?>
<svg width="100px" height="100px" viewBox="0 0 100 100" version="1.1" xmlns="http://www.w3.org/2000/svg" xmlns:xlink="http://www.w3.org/1999/xlink">
    <title>icon_mail</title>
    <g id="icon_mail" stroke="none" stroke-width="1" fill="none" fill-rule="evenodd">
        <path d="M97.4499635,16.6000157 C94.655908,12.4663343 89.9893576,9.99249993 84.9999682,10 L15,10 C6.71572624,10 0,16.7157444 0,25.0000139 L0,75 C0,83.2842727 6.71572624,90 15,90 L84.9999682,90 C93.2842363,90 100,83.2842727 100,75 L100,25.0000139 C100.006643,22.0083742 99.1186057,19.0830754 97.4499635,16.6000157 L97.4499635,16.6000157 Z M15.6785023,20 L85.2717883,20 C86.6995798,20.0017924 88.057658,20.6121515 89,21.6755647 L50.4751453,44 L12,21.6262834 C12.9398034,20.5939411 14.2758086,20.0032869 15.6785023,20 Z M90,74.9526814 C90,77.7402385 87.7614237,80 85,80 L15,80 C12.2385763,80 10,77.7402385 10,74.9526814 L10,32 L45,52.7444795 C46.5240291,53.6164588 48.2482362,54.0689952 50,54.0567823 C51.7562989,54.0536362 53.4808018,53.5836139 55,52.6940063 L90,32 L90,74.9526814 Z" id="Shape" fill="inherit" fill-rule="nonzero"></path>
    </g>
</svg>