<?xml version="1.0" encoding="UTF-8"?>
<svg width="100px" height="100px" viewBox="0 0 100 100" version="1.1" xmlns="http://www.w3.org/2000/svg" xmlns:xlink="http://www.w3.org/1999/xlink">
    <title>icon_chat_plus</title>
    <g id="icon_chat_plus" stroke="none" stroke-width="1" fill="none" fill-rule="evenodd">
        <path d="M50,0 C77.5729167,0 100,20.5624997 100,45.8333327 C100,71.1041657 77.5729167,91.6666655 50,91.6666655 C46.3992425,91.6562072 42.8085223,91.2863177 39.28125,90.5624988 C25.9134375,99.5855195 10.0365583,99.9836249 8.4399929,99.9993905 L8.35959619,99.9999503 L8.35959619,99.9999503 L8.33333333,100 L8.12346169,99.9949056 C6.52183972,99.9157844 5.09933461,98.9212245 4.48073987,97.4282909 C3.83524971,95.8704471 4.1923742,94.0771303 5.38541667,92.8854155 C11.2083333,87.0624989 11.6145833,81.5312489 11.96875,76.6458323 C11.9895833,76.2916657 12.0416667,75.9479157 12.0416667,75.6041657 C4.37123033,67.5837354 0.0624403114,56.931035 0,45.8333327 C0,20.5624997 22.4270833,0 50,0 Z M50,8.33333323 C27.0208333,8.33333323 8.33333333,25.1562497 8.33333333,45.8333332 C8.41807331,55.4117005 12.378959,64.5472915 19.3125,71.1562491 C20.2494158,72.0770409 20.6972335,73.3857496 20.5208333,74.687499 C20.40625,75.468749 20.34375,76.343749 20.28125,77.281249 C20.155705,81.8894117 19.1109613,86.4260784 17.2083333,90.6249988 C23.9346292,89.3747123 30.3122182,86.6886637 35.90625,82.7499989 C36.8945089,82.0161912 38.1566537,81.7568986 39.3541667,82.0416656 C66.78125,88.5416655 91.6666667,69.6249991 91.6666667,45.8333332 C91.6666667,25.1562497 72.9791667,8.33333323 50,8.33333323 Z M50,25 C52.3195959,25 54.2,26.8804041 54.2,29.2 L54.2,29.2 L54.2,41.8 L66.8,41.8 C69.1195959,41.8 71,43.6804041 71,46 C71,48.3195959 69.1195959,50.2 66.8,50.2 L66.8,50.2 L54.2,50.2 L54.2,62.8 C54.2,65.1195959 52.3195959,67 50,67 C47.6804041,67 45.8,65.1195959 45.8,62.8 L45.8,62.8 L45.8,50.2 L33.2,50.2 C30.8804041,50.2 29,48.3195959 29,46 C29,43.6804041 30.8804041,41.8 33.2,41.8 L33.2,41.8 L45.8,41.8 L45.8,29.2 C45.8,26.8804041 47.6804041,25 50,25 Z" id="Combined-Shape" fill="inherit" fill-rule="nonzero"></path>
    </g>
</svg>