<?xml version="1.0" encoding="UTF-8"?>
<svg width="100px" height="100px" viewBox="0 0 100 100" version="1.1" xmlns="http://www.w3.org/2000/svg" xmlns:xlink="http://www.w3.org/1999/xlink">
    <title>icon_speaker</title>
    <g id="icon_speaker" stroke="none" stroke-width="1" fill="none" fill-rule="evenodd">
        <path d="M94.4501475,3.46812215 C91.1431368,0.667840691 86.768298,-0.523634424 82.5005255,0.213676056 L12.5027401,12.5805712 C5.15286434,13.9701284 -0.126704567,20.4625138 0.0031355137,27.9515704 L0.0031355137,41.7704492 C-0.0860623039,46.2569013 1.73137343,50.5702529 5.00297733,53.6366603 C4.95111191,54.0690323 4.95111191,54.5060668 5.00297733,54.9384388 L5.00297733,87.4828997 C5.00297733,94.3959033 10.5992409,100 17.5025819,100 C24.4059228,100 30.0021864,94.3959033 30.0021864,87.4828997 L30.0021864,60.1956209 L82.5005255,69.4582752 C83.332177,69.5326641 84.168795,69.5326641 85.0004464,69.4582752 C88.4535571,69.4303226 91.7912782,68.2100839 94.4501475,66.0035555 C97.944149,63.0298928 99.9705048,58.6790125 100,54.0872759 L100,15.5846753 C100.008708,10.9273802 97.980694,6.49975474 94.4501475,3.46812215 Z M10.0051228,27.5166375 C9.89213169,24.8681516 11.6594196,22.5165653 14.2036884,21.9299475 L25,20 L25,49 L14.2036884,47.1208406 C11.6820737,46.4986742 9.93184721,44.1697901 10.0051228,41.5341506 L10.0051228,27.5166375 Z M20,87.4615385 C20,88.8634921 18.8807119,90 17.5,90 C16.1192881,90 15,88.8634921 15,87.4615385 L15,57 L20,57.9138462 L20,87.4615385 Z M90,54.4053428 C90.0130192,56.1190073 89.2827313,57.7533008 87.9998306,58.8810795 C86.9482685,59.7762312 85.5591751,60.1622808 84.1998428,59.9371522 L35,51.2371247 L35,18.9514734 L84.1998428,10 L84.9998402,10 C86.0983775,10.0007919 87.1611625,10.3927348 87.9998306,11.1063619 C89.2772866,12.238188 90.0063951,13.8698422 90,15.5820986 L90,54.4053428 Z" id="Shape" fill="inherit" fill-rule="nonzero"></path>
    </g>
</svg>