<?xml version="1.0" encoding="UTF-8"?>
<svg width="100px" height="100px" viewBox="0 0 100 100" version="1.1" xmlns="http://www.w3.org/2000/svg" xmlns:xlink="http://www.w3.org/1999/xlink">
    <title>icon_light</title>
    <g id="icon_light" stroke="none" stroke-width="1" fill="none" fill-rule="evenodd">
        <path d="M50,84 C52.209139,84 54,85.9027898 54,88.25 L54,88.25 L54,96.75 C54,99.0972102 52.209139,101 50,101 C47.790861,101 46,99.0972102 46,96.75 L46,96.75 L46,88.25 C46,85.9027898 47.790861,84 50,84 Z M28.0338095,77.1364523 C29.6536195,75.5949439 32.2070703,75.6253551 33.7896993,77.205004 C35.3723282,78.7846529 35.4072582,81.3377488 33.8684372,82.9600937 L33.8684372,82.9600937 L28.0338095,88.7940424 C27.2674512,89.5595087 26.2306234,89.9927042 25.1474213,90 L25.1474213,90 L25.1164957,90 C23.4522444,89.9971614 21.9528507,88.994252 21.3149943,87.4572647 C20.677138,85.9202775 21.0258805,84.1505621 22.1991818,82.970401 L22.1991818,82.970401 Z M69.126376,76 C70.2255509,76 71.2789912,76.4404665 72.0516442,77.2231189 L72.0516442,77.2231189 L77.8713342,83.0492422 C79.4062156,84.669411 79.371375,87.2190823 77.7927979,88.7966123 C76.2142208,90.3741424 73.6673073,90.4045128 72.0516442,88.8650721 L72.0516442,88.8650721 L66.2011078,83.0389487 C64.5996307,81.4318137 64.5996307,78.8302539 66.2011078,77.2231189 C66.9737609,76.4404665 68.0272011,76 69.126376,76 Z M50,0 C52.3315931,0 54.2217228,1.86548021 54.2217228,4.16666667 L54.2217228,4.16666667 L54.2217228,20.8333333 C54.2267015,20.9200694 54.2267015,21.007014 54.2217228,21.09375 C69.4276481,22.8311554 82.0922109,33.4047299 86.3490336,47.9166667 L86.3490336,47.9166667 L87.8371909,53.0208333 C88.2017694,54.278833 87.9464322,55.6327935 87.1476742,56.6770897 C86.3489162,57.7213859 85.0995193,58.334715 83.7737827,58.3333333 L83.7737827,58.3333333 L66.8868914,58.3333333 C66.8868914,67.5380792 59.3263726,75 50,75 C40.6736274,75 33.1131086,67.5380792 33.1131086,58.3333333 L33.1131086,58.3333333 L16.2262173,58.3333333 C14.9004807,58.334715 13.6510838,57.7213859 12.8523258,56.6770897 C12.0535678,55.6327935 11.7982306,54.278833 12.1628091,53.0208333 L12.1628091,53.0208333 L13.6509664,47.9166667 C17.9077891,33.4047299 30.5723519,22.8311554 45.7782772,21.09375 C45.7732985,21.007014 45.7732985,20.9200694 45.7782772,20.8333333 L45.7782772,20.8333333 L45.7782772,4.16666667 C45.7782772,1.86548021 47.6684069,0 50,0 Z M58.4434457,58.3333333 L41.5565543,58.3333333 C41.5565543,62.9357062 45.3368137,66.6666667 50,66.6666667 C54.6631863,66.6666667 58.4434457,62.9357062 58.4434457,58.3333333 L58.4434457,58.3333333 Z M50,29.1666667 C36.9758806,29.2071979 25.521153,37.6756209 21.8200001,50 L21.8200001,50 L78.1799999,50 C74.478847,37.6756209 63.0241194,29.2071979 50,29.1666667 L50,29.1666667 Z" id="Combined-Shape" fill="inherit" fill-rule="nonzero"></path>
    </g>
</svg>