<?xml version="1.0" encoding="UTF-8"?>
<svg width="100px" height="100px" viewBox="0 0 100 100" version="1.1" xmlns="http://www.w3.org/2000/svg" xmlns:xlink="http://www.w3.org/1999/xlink">
    <title>icon_send</title>
    <g id="icon_send" stroke="none" stroke-width="1" fill="none" fill-rule="evenodd">
        <path d="M3.24562741,0.235850974 C2.29633404,0.27097321 1.4145464,0.735992464 0.84934,1.49955635 C0.284133601,2.26312024 0.0968728952,3.24232864 0.340452768,4.16058793 L10.7526642,43.1882746 L56.7287573,50.2259629 L10.7587891,57.2575328 L0.340452768,96.2974321 C0.021066962,97.4874625 0.430599617,98.7541008 1.38620605,99.531829 C2.34181248,100.309557 3.66513701,100.453219 4.76535286,99.8986738 L98.5119112,53.0215019 C99.5673849,52.4908892 100.233489,51.4104329 100.233489,50.2290103 C100.233489,49.0475876 99.5673849,47.9671313 98.5119112,47.4365187 L4.76535286,0.559346271 C4.2940882,0.32527908 3.77135775,0.214000301 3.24562741,0.23582735 L3.24562741,0.235850974 Z" id="Path" fill="inherit" fill-rule="nonzero"></path>
    </g>
</svg>