<?xml version="1.0" encoding="UTF-8"?>
<svg width="100px" height="100px" viewBox="0 0 100 100" version="1.1" xmlns="http://www.w3.org/2000/svg" xmlns:xlink="http://www.w3.org/1999/xlink">
    <title>icon_hamburger</title>
    <g id="icon_hamburger" stroke="none" stroke-width="1" fill="none" fill-rule="evenodd">
        <path d="M92.875,75 C96.2577441,75 99,77.6862915 99,81 C99,84.3137085 96.2577441,87 92.875,87 L92.875,87 L7.125,87 C3.74225591,87 1,84.3137085 1,81 C1,77.6862915 3.74225591,75 7.125,75 L7.125,75 Z M92.875,44 C96.2577441,44 99,46.6862915 99,50 C99,53.3137085 96.2577441,56 92.875,56 L92.875,56 L7.125,56 C3.74225591,56 1,53.3137085 1,50 C1,46.6862915 3.74225591,44 7.125,44 L7.125,44 Z M92.875,13 C96.2577441,13 99,15.6862915 99,19 C99,22.3137085 96.2577441,25 92.875,25 L92.875,25 L7.125,25 C3.74225591,25 1,22.3137085 1,19 C1,15.6862915 3.74225591,13 7.125,13 L7.125,13 Z" id="Combined-Shape" fill="inherit" fill-rule="nonzero"></path>
    </g>
</svg>