<?xml version="1.0" encoding="UTF-8"?>
<svg width="100px" height="100px" viewBox="0 0 100 100" version="1.1" xmlns="http://www.w3.org/2000/svg" xmlns:xlink="http://www.w3.org/1999/xlink">
    <title>icon_box</title>
    <g id="icon_box" stroke="none" stroke-width="1" fill="none" fill-rule="evenodd">
        <path d="M90,6 C94.418278,6 98,9.581722 98,14 L98,14 L98,26 C98,30.418278 94.418278,34 90,34 L90,34 L90,82 C90,88.627417 84.627417,94 78,94 L78,94 L22,94 C15.372583,94 10,88.627417 10,82 L10,82 L10,34 C5.581722,34 2,30.418278 2,26 L2,26 L2,14 C2,9.581722 5.581722,6 10,6 L10,6 Z M82,34 L18,34 L18,82 C18,84.209139 19.790861,86 22,86 L22,86 L78,86 C80.209139,86 82,84.209139 82,82 L82,82 L82,34 Z M62,42 C64.209139,42 66,43.790861 66,46 L66,46 L66,54 C66,60.627417 60.627417,66 54,66 L54,66 L46,66 C39.372583,66 34,60.627417 34,54 L34,54 L34,46 C34,43.790861 35.790861,42 38,42 C40.209139,42 42,43.790861 42,46 L42,46 L42,54 C42,56.209139 43.790861,58 46,58 L46,58 L54,58 C56.209139,58 58,56.209139 58,54 L58,54 L58,46 C58,43.790861 59.790861,42 62,42 Z M90,14 L10,14 L10,26 L90,26 L90,14 Z" id="Combined-Shape" fill="inherit" fill-rule="nonzero"></path>
    </g>
</svg>