<?xml version="1.0" encoding="UTF-8"?>
<svg width="100px" height="100px" viewBox="0 0 100 100" version="1.1" xmlns="http://www.w3.org/2000/svg" xmlns:xlink="http://www.w3.org/1999/xlink">
    <title>icon_alarm</title>
    <g id="icon_alarm" stroke="none" stroke-width="1" fill="none" fill-rule="evenodd">
        <path d="M57.8333333,92 C60.1345198,92 62,93.790861 62,96 C62,98.209139 60.1345198,100 57.8333333,100 L57.8333333,100 L41.1666667,100 C38.8654802,100 37,98.209139 37,96 C37,93.790861 38.8654802,92 41.1666667,92 L41.1666667,92 Z M41.4215091,2.94358217 C44.2201706,0.57642563 47.9197594,-0.436748595 51.5338134,0.174213316 C57.5981549,1.34109574 61.9626344,6.67513993 61.9065118,12.8511961 L61.9065118,12.8511961 L61.9065118,13.8885923 C71.802066,18.8680946 78.5028291,29.8126255 78.5028291,41.5040817 L78.5028291,41.5040817 L78.5028291,47.9463127 C78.5117036,50.8614449 79.5432171,53.6810141 81.4175573,55.9135163 L81.4175573,55.9135163 L88.3361471,64.2126867 C91.1915997,67.6214906 91.8069381,72.3787987 89.9127973,76.4020931 C88.0366179,80.4353871 83.9879555,83.0106503 79.5400989,82.9999669 L79.5400989,82.9999669 L19.4510575,82.9999669 C15.0090612,82.9957044 10.9694628,80.4249904 9.08395748,76.4025329 C7.19845221,72.3800755 7.80657954,67.6302338 10.6446366,64.2126867 L10.6446366,64.2126867 L17.5321083,55.9135163 C19.3952304,53.6767012 20.4155731,50.8575689 20.4157184,47.9463127 L20.4157184,47.9463127 L20.4157184,41.5040817 C20.4157184,29.8541213 27.2409539,18.6813632 37.0120358,13.8678444 L37.0120358,13.8678444 L37.0120358,12.4569855 C37.0096408,8.79121947 38.6228477,5.31073872 41.4215091,2.94358217 Z M49.4592738,8.30740028 C47.1678005,8.30740028 45.3101944,10.1652328 45.3101944,12.4569855 L45.3101944,12.4569855 L45.3101944,16.6065706 C45.3106894,18.3628308 44.2056352,19.9292076 42.5510567,20.5175547 C34.6574332,23.3081507 28.7138771,32.3334985 28.7138771,41.5040817 L28.7138771,41.5040817 L28.7138771,47.9463127 C28.7048973,52.7949297 27.0025112,57.4880703 23.9009451,61.2146114 L23.9009451,61.2146114 L17.0134734,69.5137817 C16.2174991,70.4498975 16.0468113,71.7667926 16.5778201,72.8749457 C17.0883125,73.9999712 18.2158532,74.7164743 19.4510575,74.7007632 L19.4510575,74.7007632 L79.5400989,74.7007632 C80.7792801,74.7274371 81.9161269,74.0160783 82.4341075,72.8898961 C82.9520882,71.7637139 82.7524186,70.4374825 81.9258196,69.5137817 L81.9258196,69.5137817 L75.0176025,61.2146114 C71.9160363,57.4880703 70.2136502,52.7949297 70.2046704,47.9463127 L70.2046704,47.9463127 L70.2046704,41.5040817 C70.2046704,32.1675151 64.4893137,23.5363779 56.3156274,20.4968067 C54.6886396,19.8937789 53.6086654,18.3419026 53.6083531,16.6065706 L53.6083531,16.6065706 L53.6083531,12.9030659 C53.6848814,10.7718599 52.2558937,8.87930311 50.1853627,8.36964405 C49.9455337,8.32835753 49.7026296,8.30740028 49.4592738,8.30740028 Z M16.8003239,13.0002572 L17.0268763,13.0085852 C18.540827,13.1035073 19.8876852,13.9764252 20.5601025,15.2985193 C21.2325198,16.6206133 21.12834,18.1910259 20.2868065,19.4181979 L20.2868065,19.4181979 L18.8544175,21.4812016 C14.7042917,27.5170185 12.4888127,34.6138721 12.4882441,41.8739927 C12.4882441,44.1527236 10.5880889,46 8.24412857,46 C7.11851913,46 6.03901173,45.5652969 5.24308566,44.7915204 C4.4471596,44.017744 4,42.9682779 4,41.8739927 C3.99314755,32.9819041 6.70783692,24.28889 11.7985754,16.9013334 L11.7985754,16.9013334 L13.2203541,14.8383298 C14.0618875,13.6111578 15.5129256,12.9136631 17.0268763,13.0085852 Z M79.893689,13.6939832 C81.8474217,12.4289079 84.4871105,12.941681 85.7895989,14.8392939 L85.7895989,14.8392939 L87.2131159,16.9029169 C92.3005519,24.2920862 95.0110182,32.9836497 95,41.8727542 C95,44.1521691 93.0974879,46 90.7506619,46 C88.4038358,46 86.5013574,44.1521691 86.5013574,41.8727542 C86.5049772,34.616101 84.2943283,27.5211729 80.1486472,21.4841597 L80.1486472,21.4841597 L78.714507,19.4205368 C77.4120185,17.5229239 77.9399563,14.9590585 79.893689,13.6939832 Z" id="Combined-Shape" fill="inherit" fill-rule="nonzero"></path>
    </g>
</svg>