<?xml version="1.0" encoding="UTF-8"?>
<svg width="100px" height="100px" viewBox="0 0 100 100" version="1.1" xmlns="http://www.w3.org/2000/svg" xmlns:xlink="http://www.w3.org/1999/xlink">
    <title>icon_lock</title>
    <g id="icon_lock" stroke="none" stroke-width="1" fill="none" fill-rule="evenodd">
        <g id="Group" transform="translate(12.000000, 0.000000)" fill="inherit" fill-rule="nonzero">
            <path d="M66.5,28.8571429 C66.5,12.9197829 53.740114,0 38,0 C22.2598841,0 9.5,12.9197829 9.5,28.8571429 L9.5,44.1514286 C3.82028859,46.1846466 0.0169307367,51.6145835 0,57.7142857 L0,86.5714286 C0,94.5401085 6.37994215,101 14.2499996,101 L61.7499984,101 C69.6200559,101 76,94.5401085 76,86.5714286 L76,57.7142857 C76.0031653,51.5969264 72.1961209,46.1424525 66.5,44.1033333 C66.5229189,43.8312877 66.5229189,43.5577599 66.5,43.2857143 L66.5,28.8571429 Z M18.9999995,28.8571429 C18.9999995,18.2322362 27.506589,9.61904762 37.9999995,9.61904762 C48.493409,9.61904762 56.9999995,18.2322362 56.9999995,28.8571429 L56.9999995,43.2857143 L18.9999995,43.2857143 L18.9999995,28.8571429 Z M66.4999998,57.7142857 L66.4999998,86.5714286 C66.4999998,89.2276552 64.3733509,91.3809524 61.7499984,91.3809524 L14.2499996,91.3809524 C11.6266471,91.3809524 9.49999975,89.2276552 9.49999975,86.5714286 L9.49999975,57.7142857 C9.49999975,55.0580591 11.6266471,52.9047619 14.2499996,52.9047619 L61.7499984,52.9047619 C64.3733509,52.9047619 66.4999998,55.0580591 66.4999998,57.7142857 Z" id="Shape"></path>
            <path d="M38,63 C35.2385763,63 33,65.0893378 33,67.6666667 L33,72.3333333 C33,74.9106622 35.2385763,77 38,77 C40.7614237,77 43,74.9106622 43,72.3333333 L43,67.6666667 C43,65.0893378 40.7614237,63 38,63 Z" id="Path"></path>
        </g>
    </g>
</svg>