<?xml version="1.0" encoding="UTF-8"?>
<svg width="100px" height="100px" viewBox="0 0 100 100" version="1.1" xmlns="http://www.w3.org/2000/svg" xmlns:xlink="http://www.w3.org/1999/xlink">
    <title>icon_scan</title>
    <g id="icon_scan" stroke="none" stroke-width="1" fill="none" fill-rule="evenodd">
        <path d="M4.16666667,76 C6.46785312,76 8.33333333,77.8654802 8.33333333,80.1666667 L8.33333333,80.1666667 L8.33333333,92.6666667 L20.8333333,92.6666667 C23.1345198,92.6666667 25,94.5321469 25,96.8333333 C25,99.1345198 23.1345198,101 20.8333333,101 L20.8333333,101 L8.33333333,101 C3.73096042,101 0,97.2690396 0,92.6666667 L0,92.6666667 L0,80.1666667 C0,77.8654802 1.86548021,76 4.16666667,76 Z M96.8333333,76 C99.1345198,76 101,77.8654802 101,80.1666667 L101,80.1666667 L101,92.6666667 C101,97.2690396 97.2690396,101 92.6666667,101 L92.6666667,101 L80.1666667,101 C77.8654802,101 76,99.1345198 76,96.8333333 C76,94.5321469 77.8654802,92.6666667 80.1666667,92.6666667 L80.1666667,92.6666667 L92.6666667,92.6666667 L92.6666667,80.1666667 C92.6666667,77.8654802 94.5321469,76 96.8333333,76 Z M73,46 C75.209139,46 77,47.790861 77,50 C77,52.209139 75.209139,54 73,54 L27,54 C24.790861,54 23,52.209139 23,50 C23,47.790861 24.790861,46 27,46 L73,46 Z M20.8333333,0 C23.1345198,0 25,1.86548021 25,4.16666667 C25,6.46785312 23.1345198,8.33333333 20.8333333,8.33333333 L20.8333333,8.33333333 L8.33333333,8.33333333 L8.33333333,20.8333333 C8.33333333,23.1345198 6.46785312,25 4.16666667,25 C1.86548021,25 0,23.1345198 0,20.8333333 L0,20.8333333 L0,8.33333333 C0,3.73096042 3.73096042,0 8.33333333,0 L8.33333333,0 Z M92.6666667,0 C97.2690396,0 101,3.73096042 101,8.33333333 L101,8.33333333 L101,20.8333333 C101,23.1345198 99.1345198,25 96.8333333,25 C94.5321469,25 92.6666667,23.1345198 92.6666667,20.8333333 L92.6666667,20.8333333 L92.6666667,8.33333333 L80.1666667,8.33333333 C77.8654802,8.33333333 76,6.46785312 76,4.16666667 C76,1.86548021 77.8654802,0 80.1666667,0 L80.1666667,0 Z" id="Combined-Shape" fill="inherit" fill-rule="nonzero"></path>
    </g>
</svg>