<?xml version="1.0" encoding="UTF-8"?>
<svg width="100px" height="100px" viewBox="0 0 100 100" version="1.1" xmlns="http://www.w3.org/2000/svg" xmlns:xlink="http://www.w3.org/1999/xlink">
    <title>icon_info</title>
    <g id="icon_info" stroke="none" stroke-width="1" fill="none" fill-rule="evenodd">
        <g id="Group" transform="translate(50.000000, 50.000000) rotate(-180.000000) translate(-50.000000, -50.000000) " fill="inherit" fill-rule="nonzero">
            <path d="M50,60 C52.7614237,60 55,57.7614237 55,55 L55,30 C55,27.2385763 52.7614237,25 50,25 C47.2385763,25 45,27.2385763 45,30 L45,55 C45,57.7614237 47.2385763,60 50,60 Z" id="Path"></path>
            <path d="M46.4500715,73.6360052 C46.6872552,73.8537513 46.9377467,74.0562236 47.2000653,74.2422251 C47.478789,74.4334189 47.7814391,74.5863139 48.1000577,74.6968901 L49.0000502,75 L50.0000418,75 L50.9500339,75 C51.2808004,74.9513711 51.6016061,74.849013 51.9000259,74.6968901 C52.2071905,74.5960028 52.4947628,74.4421791 52.7500188,74.2422251 C53.0360633,74.0676704 53.3040678,73.8645816 53.5500121,73.6360052 C54.011835,73.1608411 54.3695761,72.5928441 54.6000033,71.9689005 C54.8562061,71.3615575 54.9921001,70.7093638 55,70.0492042 C54.9815827,68.7116457 54.4636731,67.4305049 53.5500121,66.4624031 L52.7500188,65.8561832 C52.4947628,65.6562293 52.2071905,65.5024055 51.9000259,65.4015183 C51.6019442,65.2485577 51.2809998,65.1461553 50.9500339,65.0984084 C49.3188678,64.7684006 47.6320804,65.2796869 46.4500715,66.4624031 C45.5141468,67.4157791 44.9924,68.706412 45,70.0492042 C45.0079836,70.7093638 45.1438776,71.3615575 45.4000803,71.9689005 C45.6305076,72.5928441 45.9882487,73.1608411 46.4500715,73.6360052 L46.4500715,73.6360052 Z" id="Path"></path>
            <path d="M25,95.6 C27.7857996,98.3894947 31.5577839,99.9701358 35.5,100 L64.5,100 C68.4422161,99.9701358 72.2142004,98.3894947 75,95.6 L95.5,75.1 C98.3505627,72.30611 99.9700492,68.4913196 100,64.5 L100,35.5 C99.9701358,31.5577839 98.3894947,27.7857996 95.6,25 L75,4.4 L75,4.4 C72.2142004,1.61050528 68.4422161,0.0298642398 64.5,0 L35.5,0 C31.5577839,0.0298642398 27.7857996,1.61050528 25,4.4 L4.4,25 C1.61050528,27.7857996 0.0298642398,31.5577839 0,35.5 L0,64.5 C0.0298642398,68.4422161 1.61050528,72.2142004 4.4,75 L25,95.6 Z M9.99991632,35.5 C9.99231621,34.1709851 10.5140674,32.8935942 11.45,31.95 L31.95,11.45 C32.8935942,10.5140674 34.1709851,9.99231621 35.5,9.99991632 L64.5,9.99991632 C65.8290149,9.99231621 67.1064058,10.5140674 68.05,11.45 L88.55,31.95 C89.4859326,32.8935942 90.0076838,34.1709851 90.0000837,35.5 L90.0000837,64.5 C90.0076838,65.8290149 89.4859326,67.1064058 88.55,68.05 L68.05,88.55 C67.1064058,89.4859326 65.8290149,90.0076838 64.5,90.0000837 L35.5,90.0000837 C34.1709851,90.0076838 32.8935942,89.4859326 31.95,88.55 L11.45,68.05 C10.5140674,67.1064058 9.99231621,65.8290149 9.99991632,64.5 L9.99991632,35.5 Z" id="Shape"></path>
        </g>
    </g>
</svg>