<?xml version="1.0" encoding="UTF-8"?>
<svg width="100px" height="100px" viewBox="0 0 100 100" version="1.1" xmlns="http://www.w3.org/2000/svg" xmlns:xlink="http://www.w3.org/1999/xlink">
    <title>icon_calnedar</title>
    <g id="icon_calnedar" stroke="none" stroke-width="1" fill="none" fill-rule="evenodd">
        <path d="M75,0 C77.3011865,0 79.1666667,1.86548021 79.1666667,4.16666667 L79.1666667,4.16666667 L79.1666667,8.33333333 L83.3333333,8.33333333 C92.5380792,8.33333333 100,15.7952542 100,25 L100,25 L100,83.3333333 C100,92.5380792 92.5380792,100 83.3333333,100 L83.3333333,100 L16.6666667,100 C7.46192084,100 0,92.5380792 0,83.3333333 L0,83.3333333 L0,25 C0,15.7952542 7.46192084,8.33333333 16.6666667,8.33333333 L16.6666667,8.33333333 L20.8333333,8.33333333 L20.8333333,4.16666667 C20.8333333,1.86548021 22.6988135,0 25,0 C27.3011865,0 29.1666667,1.86548021 29.1666667,4.16666667 L29.1666667,4.16666667 L29.1666667,8.33333333 L45.8333333,8.33333333 L45.8333333,4.16666667 C45.8333333,1.86548021 47.6988135,0 50,0 C52.3011865,0 54.1666667,1.86548021 54.1666667,4.16666667 L54.1666667,4.16666667 L54.1666667,8.33333333 L70.8333333,8.33333333 L70.8333333,4.16666667 C70.8333333,1.86548021 72.6988135,0 75,0 Z M91.6666667,41.6666667 L8.33333333,41.6666667 L8.33333333,83.3333333 C8.33333333,87.9357062 12.0642938,91.6666667 16.6666667,91.6666667 L16.6666667,91.6666667 L83.3333333,91.6666667 C87.9357062,91.6666667 91.6666667,87.9357062 91.6666667,83.3333333 L91.6666667,83.3333333 L91.6666667,41.6666667 Z M59.955248,56.2207939 C61.5668325,54.5930687 64.1797272,54.5930687 65.7913116,56.2207939 C67.4028961,57.848519 67.4028961,60.4875829 65.7913116,62.115308 L65.7913116,62.115308 L49.2936052,78.7782457 C48.5199937,79.560475 47.4702343,80 46.3755734,80 C45.2809124,80 44.231153,79.560475 43.4575415,78.7782457 L43.4575415,78.7782457 L35.2086883,70.4467769 C33.5971039,68.8190517 33.5971039,66.1799879 35.2086884,64.5522627 C36.8202728,62.9245376 39.4331675,62.9245376 41.044752,64.5522627 L41.044752,64.5522627 L46.3755734,69.9364744 Z M20.8333333,16.6666667 L16.6666667,16.6666667 C12.0642938,16.6666667 8.33333333,20.3976271 8.33333333,25 L8.33333333,25 L8.33333333,33.3333333 L91.6666667,33.3333333 L91.6666667,25 C91.6666667,20.3976271 87.9357062,16.6666667 83.3333333,16.6666667 L83.3333333,16.6666667 L79.1666667,16.6666667 L79.1666667,20.8333333 C79.1666667,23.1345198 77.3011865,25 75,25 C72.6988135,25 70.8333333,23.1345198 70.8333333,20.8333333 L70.8333333,20.8333333 L70.8333333,16.6666667 L54.1666667,16.6666667 L54.1666667,20.8333333 C54.1666667,23.1345198 52.3011865,25 50,25 C47.6988135,25 45.8333333,23.1345198 45.8333333,20.8333333 L45.8333333,20.8333333 L45.8333333,16.6666667 L29.1666667,16.6666667 L29.1666667,20.8333333 C29.1666667,23.1345198 27.3011865,25 25,25 C22.6988135,25 20.8333333,23.1345198 20.8333333,20.8333333 L20.8333333,20.8333333 L20.8333333,16.6666667 Z" id="Combined-Shape" fill="inherit" fill-rule="nonzero"></path>
    </g>
</svg>