<?xml version="1.0" encoding="UTF-8"?>
<svg width="100px" height="100px" viewBox="0 0 100 100" version="1.1" xmlns="http://www.w3.org/2000/svg" xmlns:xlink="http://www.w3.org/1999/xlink">
    <title>icon_book</title>
    <g id="icon_book" stroke="none" stroke-width="1" fill="none" fill-rule="evenodd">
        <g id="Group" fill="inherit" fill-rule="nonzero">
            <path d="M92.5833333,0 L25.25,0 C15.9532067,0 8.41666667,7.53654004 8.41666667,16.8333333 L8.41666667,21.0416667 L4.20833333,21.0416667 C1.88413501,21.0416667 0,22.9258017 0,25.25 C0,27.5741983 1.88413501,29.4583333 4.20833333,29.4583333 L8.41666667,29.4583333 L8.41666667,46.2916667 L4.20833333,46.2916667 C1.88413501,46.2916667 0,48.1758017 0,50.5 C0,52.8241983 1.88413501,54.7083333 4.20833333,54.7083333 L8.41666667,54.7083333 L8.41666667,71.5416667 L4.20833333,71.5416667 C1.88413501,71.5416667 0,73.4258017 0,75.75 C0,78.0741983 1.88413501,79.9583333 4.20833333,79.9583333 L8.41666667,79.9583333 L8.41666667,84.1666667 C8.41666667,93.46346 15.9532067,101 25.25,101 L92.5833333,101 C97.23173,101 101,97.23173 101,92.5833333 L101,8.41666667 C101,3.76827002 97.23173,0 92.5833333,0 Z M92.5833333,92.5833333 L25.25,92.5833333 C20.6016034,92.5833333 16.8333333,88.8150633 16.8333333,84.1666667 L16.8333333,79.9583333 L21.0416667,79.9583333 C23.365865,79.9583333 25.25,78.0741983 25.25,75.75 C25.25,73.4258017 23.365865,71.5416667 21.0416667,71.5416667 L16.8333333,71.5416667 L16.8333333,54.7083333 L21.0416667,54.7083333 C23.365865,54.7083333 25.25,52.8241983 25.25,50.5 C25.25,48.1758017 23.365865,46.2916667 21.0416667,46.2916667 L16.8333333,46.2916667 L16.8333333,29.4583333 L21.0416667,29.4583333 C23.365865,29.4583333 25.25,27.5741983 25.25,25.25 C25.25,22.9258017 23.365865,21.0416667 21.0416667,21.0416667 L16.8333333,21.0416667 L16.8333333,16.8333333 C16.8333333,12.1849367 20.6016034,8.41666667 25.25,8.41666667 L92.5833333,8.41666667 L92.5833333,92.5833333 Z" id="Shape"></path>
            <path d="M38.1666667,80 C40.4678531,80 42.3333333,78.1149328 42.3333333,75.7895845 L42.3333333,71.579169 C42.3333333,62.2777759 49.7952542,54.7375069 59,54.7375069 C68.2047458,54.7375069 75.6666667,62.2777759 75.6666667,71.579169 L75.6666667,75.7895845 C75.6666667,78.1149328 77.5321469,80 79.8333333,80 C82.1345198,80 84,78.1149328 84,75.7895845 L84,71.579169 C83.9897498,62.3780463 79.0296662,53.9101924 71.0520833,49.4744875 C77.34138,42.8209686 77.1822692,32.2984249 70.6947404,25.8421821 C64.2072117,19.3859393 53.7927883,19.3859393 47.3052596,25.8421821 C40.8177308,32.2984249 40.65862,42.8209686 46.9479167,49.4744875 C38.9703338,53.9101924 34.0102502,62.3780463 34,71.579169 L34,75.7895845 C34,78.1149328 35.8654802,80 38.1666667,80 Z M50.6666667,37.8958449 C50.6666667,33.2451483 54.3976271,29.4750138 59,29.4750138 C63.6023729,29.4750138 67.3333333,33.2451483 67.3333333,37.8958449 C67.3333333,42.5465414 63.6023729,46.3166759 59,46.3166759 C54.3976271,46.3166759 50.6666667,42.5465414 50.6666667,37.8958449 Z" id="Shape"></path>
        </g>
    </g>
</svg>