<?xml version="1.0" encoding="UTF-8"?>
<svg width="100px" height="100px" viewBox="0 0 100 100" version="1.1" xmlns="http://www.w3.org/2000/svg" xmlns:xlink="http://www.w3.org/1999/xlink">
    <title>icon_plus_box</title>
    <g id="icon_plus_box" stroke="none" stroke-width="1" fill="none" fill-rule="evenodd">
        <path d="M80.7785058,0.890256549 L83.1473802,1.03263183 L85.504517,1.18482986 L87.0506621,1.27773158 C93.0545627,1.7289245 97.8848087,6.35417178 98.628904,12.3031498 L98.6637327,12.6120214 L98.6917071,12.9350456 L98.7830867,14.4588428 C100.278069,36.5522624 100.395667,58.7164116 99.1354286,80.824551 L98.9951307,83.1930601 L98.8448182,85.5526727 L98.7520208,87.0979978 C98.2911739,93.3275761 93.3392346,98.2805447 87.1055702,98.741872 C74.8889314,99.5819405 62.6181749,100 50.2903004,100 C40.707705,100 31.132463,99.7438548 21.6155176,99.2326035 L18.7622339,99.0715759 L15.9150542,98.8953815 L13.0029591,98.711417 C6.96058687,98.3115706 2.0782481,93.6708726 1.33846483,87.6871576 L1.30390977,87.3764722 L1.2764492,87.0534735 L1.18500985,85.5287864 C-0.289629449,63.4436067 -0.388013981,41.2889767 0.890197162,19.1914702 L1.03241596,16.8241045 L1.18458253,14.466475 L1.27746432,12.9200178 C1.72855051,6.91504195 6.35283119,2.0838002 12.3007379,1.33953394 L12.6095541,1.30469709 L12.9325281,1.27671563 L14.4568942,1.18525753 C36.5375102,-0.289689986 58.6875622,-0.388095082 80.7785058,0.890256549 Z M49.968767,8.1142366 C40.2402098,8.1142366 30.4383803,8.37884302 20.622901,8.90219619 L17.6779073,9.06695868 L13.4786158,9.32141362 C11.4016447,9.47298368 9.71471319,11.0329539 9.38447963,13.0457154 L9.35519676,13.2555081 L9.33606053,13.452977 L9.24380125,14.9906268 C7.80677583,36.6831377 7.70759618,58.4426499 8.94634564,80.1434253 L9.08949036,82.5543744 L9.24419386,84.9734841 L9.33519026,86.4918396 C9.48746192,88.5735143 11.0531854,90.2624548 13.0701392,90.5880469 L13.2803597,90.6168258 L13.4845215,90.635835 L16.3791346,90.8196585 C39.7078919,92.3202401 63.1105446,92.2691766 86.4303263,90.6669593 C88.5045515,90.5198335 90.188404,88.958469 90.5088559,86.9475801 L90.5371027,86.7379931 L90.5561858,86.5256073 L90.7284631,84.0639926 L90.738,84.063 L90.8335305,82.5875397 C92.1299082,61.6989269 92.1868064,40.7520486 91.0041021,19.8590138 L90.862135,17.4485243 L90.709297,15.0402841 L90.6021416,13.5091743 C90.4562977,11.4348019 88.9015338,9.74751669 86.8931587,9.41672765 L86.6838168,9.38738671 L86.4871077,9.3682128 L84.9488449,9.27587213 C73.4174151,8.50087192 61.7289112,8.1142366 49.968767,8.1142366 Z M50.4851485,24.2574257 C52.5615944,24.2574257 54.2778142,25.8523975 54.4954349,27.9369823 L54.5117785,28.1402076 L54.5173267,28.3502475 L54.517,45.907 L71.710396,45.9071782 C73.8065516,45.9071782 75.5227154,47.5280848 75.7230359,49.5947497 L75.7376515,49.7961017 L75.7425743,50 C75.7425743,52.0988052 74.1800475,53.847489 72.118993,54.070371 L71.9180156,54.0871376 L71.710396,54.0928218 L54.517,54.092 L54.5173267,71.6497525 C54.5173267,73.7690433 52.9282027,75.5183917 50.8858061,75.7226496 L50.6867779,75.7375536 L50.4851485,75.7425743 C48.4087026,75.7425743 46.6924828,74.1476025 46.4748621,72.0630177 L46.4585185,71.8597924 L46.4529703,71.6497525 L46.452,54.092 L29.259901,54.0928218 C27.1637454,54.0928218 25.4475816,52.4719152 25.2472611,50.4052503 L25.2326455,50.2038983 L25.2277228,50 C25.2277228,47.9011948 26.7902495,46.152511 28.851304,45.929629 L29.0522815,45.9128624 L29.259901,45.9071782 L46.452,45.907 L46.4529703,28.3502475 C46.4529703,26.2309567 48.0420944,24.4816083 50.084491,24.2773504 L50.2835191,24.2624464 L50.4851485,24.2574257 Z" id="Combined-Shape" fill="inherit" fill-rule="nonzero"></path>
    </g>
</svg>