<?xml version="1.0" encoding="UTF-8"?>
<svg width="100px" height="100px" viewBox="0 0 100 100" version="1.1" xmlns="http://www.w3.org/2000/svg" xmlns:xlink="http://www.w3.org/1999/xlink">
    <title>icon_avengers</title>
    <g id="icon_avengers" stroke="none" stroke-width="1" fill="none" fill-rule="evenodd">
        <path d="M56.4860761,0 L69.4582284,0 C69.7887844,0 70.0556955,0.265183727 70.0556955,0.595305221 L70.0556955,13.1251547 L70.9032396,13.5588887 C86.2139685,21.394213 96,37.2599482 96,54.2959991 C96,79.4963167 75.362756,100 50,100 C43.984396,100 38.1100542,98.8461553 32.5370437,96.5697894 C32.3882135,96.5092659 32.2709251,96.3924421 32.2095426,96.2434423 C32.1492788,96.0977617 32.1508233,95.9325384 32.2144438,95.7850512 L35.6223237,87.8828471 C35.7495926,87.5880291 36.0977483,87.4464409 36.4049839,87.5683126 C40.7500434,89.324348 45.3293013,90.2173913 50,90.2173913 L50.4519146,90.2146074 C56.4721911,90.1404078 62.2790321,88.5844601 67.468919,85.7263612 L70.0553741,84.3018634 L70.0556955,84.3242735 L70.1467483,84.2515528 L72.7540658,82.8158021 L71.9448163,82.815528 L72.6010245,82.2922184 C81.1049668,75.5031239 86.1570994,65.3013325 86.1570994,54.2962005 C86.1570994,43.3745319 81.1945498,33.1695255 72.600086,26.3189677 L70.0556955,24.2908604 L70.0556955,56.443898 C70.0556955,56.67317 69.923461,56.8819738 69.7146623,56.9821538 C69.5101319,57.0794619 69.2621302,57.0516798 69.0878982,56.9125122 L58.274912,48.3179804 C58.1334828,48.2052229 58.050702,48.0338602 58.050702,47.8518997 L58.050702,20.5454177 L40.1156352,60.145196 L58.050702,60.145196 L58.050702,56.4443008 C58.050702,56.2150288 58.1829364,56.006225 58.3917352,55.906045 C58.5963527,55.8061855 58.8397988,55.8337807 59.0219439,55.97843 L69.8314855,64.5702183 C69.9729146,64.6829758 70.0556955,64.8543386 70.0556955,65.036299 C70.0556955,65.2181513 69.9728415,65.3896806 69.8296726,65.5038229 L59.0214262,74.0945793 C58.8407541,74.2373229 58.597112,74.265165 58.3921487,74.1667515 C58.1830168,74.0663553 58.050702,73.8574246 58.050702,73.6282973 L58.050702,69.927402 L35.2587208,69.927402 L22.4420102,99.6389614 C22.3473287,99.859237 22.1326155,100 21.8936025,100 L8.92145028,100 C8.71569783,100 8.5267237,99.8964476 8.41865821,99.7253673 C8.30615001,99.5481556 8.29333196,99.3313992 8.38172211,99.1482183 L47.2908275,18.323709 L44.348934,18.7884091 C26.8335112,21.555137 13.8429006,36.57129 13.8429006,54.2959991 C13.8429006,58.2531337 14.5231354,62.2090143 15.8630806,66.0497997 C15.9141814,66.1962966 15.904758,66.3612387 15.8364338,66.503465 L10.9638935,76.6258422 C10.8675166,76.8260381 10.6686944,76.9549959 10.4473711,76.9619038 C10.2299087,76.9676234 10.0078557,76.844585 9.902945,76.6595577 C6.04185002,69.8354619 4,62.1006008 4,54.2962005 C4,29.095883 24.637244,8.59219963 50,8.59219963 L50.9515807,8.58191934 L51.9789556,8.58172797 L55.9470126,0.337449664 C56.0461256,0.131221533 56.2560009,0 56.4860761,0 Z" id="Path" fill="inherit" fill-rule="nonzero"></path>
    </g>
</svg>