<svg height='100px' width='100px'  fill="#000000" xmlns="http://www.w3.org/2000/svg" xmlns:xlink="http://www.w3.org/1999/xlink" viewBox="0 0 48 48" version="1.1" x="0px" y="0px"><title>1.13</title><desc>Created with Sketch.</desc><g stroke="none" stroke-width="1" fill="none" fill-rule="evenodd"><g fill="#000000"><g><path d="M20,30.515549 L20,14 L20,10.0085302 C20,8.8992496 20.8355618,7.69615936 21.8757076,7.3179245 L40.1242924,0.6820755 C41.1602171,0.305375603 42,0.901950359 42,2.0085302 L42,9.9914698 C42,11.1007504 41.1644382,12.3038406 40.1242924,12.6820755 L24,18.5454545 L24,37.9999998 C24,42.9705627 19.9705627,47 15,47 C10.0294373,47 6,42.9705627 6,38 C6,33.0294373 10.0294373,29 15,29 C16.8501466,29 18.569902,29.5582717 20,30.515549 Z M15,43 C17.7614237,43 20,40.7614237 20,38 C20,35.2385763 17.7614237,33 15,33 C12.2385763,33 10,35.2385763 10,38 C10,40.7614237 12.2385763,43 15,43 Z M24,14.2892 L38,9.19829094 L38,5.71079997 L24,10.8017091 L24,14.2892 Z"></path></g></g></g></svg>