<?xml version="1.0" encoding="UTF-8"?>
<svg width="100px" height="100px" viewBox="0 0 100 100" version="1.1" xmlns="http://www.w3.org/2000/svg" xmlns:xlink="http://www.w3.org/1999/xlink">
    <title>icon_id</title>
    <g id="icon_id" stroke="none" stroke-width="1" fill="none" fill-rule="evenodd">
        <path d="M50,50 C52.209139,50 54,51.8281706 54,54.0833333 L54,54.0833333 L54,94.9166667 C54,97.1718294 52.209139,99 50,99 C47.790861,99 46,97.1718294 46,94.9166667 L46,94.9166667 L46,54.0833333 C46,51.8281706 47.790861,50 50,50 Z M50.5,34 C61.8218374,34 71,43.2741016 71,54.7142857 L71,54.7142857 L71,87.8571429 C71,90.1451797 69.1643675,92 66.9,92 C64.6356325,92 62.8,90.1451797 62.8,87.8571429 L62.8,87.8571429 L62.8,54.7142857 C62.7999999,47.8501754 57.2931023,42.2857145 50.5,42.2857145 C43.7068977,42.2857145 38.2000001,47.8501754 38.2,54.7142857 L38.2,54.7142857 L38.2,87.8571429 C38.2,90.1451797 36.3643675,92 34.1,92 C31.8356325,92 30,90.1451797 30,87.8571429 L30,87.8571429 L30,54.7142857 C30,43.2741016 39.1781626,34 50.5,34 Z M50,17 C70.4345357,17 87,33.6214287 87,54.125 L87,54.125 L87,78.875 C87,81.1531746 85.1593929,83 82.8888889,83 C80.6183849,83 78.7777778,81.1531746 78.7777778,78.875 L78.7777778,78.875 L78.7777778,54.125 C78.7777778,38.1777778 65.8935278,25.25 50,25.25 C34.1064722,25.25 21.2222222,38.1777778 21.2222222,54.125 L21.2222222,54.125 L21.2222222,78.875 C21.2222222,81.1531746 19.3816151,83 17.1111111,83 C14.8406071,83 13,81.1531746 13,78.875 L13,78.875 L13,54.125 C13,33.6214287 29.5654643,17 50,17 Z M50.5,1 C72.3809572,1 91.2200283,12.9720297 99.6548176,32.2403177 C100.093409,33.2404503 100.114869,34.3733616 99.7144665,35.3892788 C99.3140637,36.405196 98.5246767,37.220698 97.5203416,37.6559912 C96.9988757,37.8784549 96.4377381,37.993796 95.8705051,37.9951131 C94.2290018,37.9967239 92.7427933,37.0281208 92.0861925,35.5287722 C84.9918953,19.3023046 69.0606612,9.22113625 50.5,9.22113625 C31.9393388,9.22113625 16.0081047,19.3023046 8.91380752,35.5287722 C8.47702928,36.5296926 7.65874515,37.3163958 6.63936213,37.7154373 C5.61997912,38.1144787 4.48320289,38.0930917 3.47965839,37.6559912 C2.47532333,37.220698 1.68593635,36.405196 1.28553353,35.3892788 C0.885130716,34.3733616 0.906590755,33.2404503 1.34518236,32.2403177 C9.77997171,12.9720297 28.6190428,1 50.5,1 Z" id="Combined-Shape" fill="inherit" fill-rule="nonzero"></path>
    </g>
</svg>