<?xml version="1.0" encoding="UTF-8"?>
<svg width="100px" height="100px" viewBox="0 0 100 100" version="1.1" xmlns="http://www.w3.org/2000/svg" xmlns:xlink="http://www.w3.org/1999/xlink">
    <title>icon_help</title>
    <g id="icon_help" stroke="none" stroke-width="1" fill="none" fill-rule="evenodd">
        <path d="M50,0 C63.2608245,0 75.9785201,5.26784202 85.3553391,14.6446609 C94.732158,24.0214799 100,36.7391755 100,50 C100,77.6142375 77.6142375,100 50,100 C22.3857625,100 0,77.6142375 0,50 C0,22.3857625 22.3857625,0 50,0 Z M50,8.33333333 C26.9881354,8.33333333 8.33333333,26.9881354 8.33333333,50 C8.33333333,73.0118646 26.9881354,91.6666667 50,91.6666667 C73.0118646,91.6666667 91.6666667,73.0118646 91.6666667,50 C91.6666667,26.9881354 73.0118646,8.33333333 50,8.33333333 Z M50,75 C52.209139,75 54,76.790861 54,79 C54,81.209139 52.209139,83 50,83 C47.790861,83 46,81.209139 46,79 C46,76.790861 47.790861,75 50,75 Z M49.988853,17 C60.7719414,16.9892871 69.8088502,25.0657079 70.8925372,35.6819464 C71.9762242,46.298185 64.754061,55.9997511 54.1866236,58.1230795 L54.1866236,58.1230795 L54.1866236,66.8461547 C54.1866236,69.1402601 52.3072177,71 49.988853,71 C47.6704883,71 45.7910824,69.1402601 45.7910824,66.8461547 L45.7910824,66.8461547 L45.7910824,54.3846187 C45.7910824,52.0905132 47.6704883,50.2307733 49.988853,50.2307733 C56.9439471,50.2307733 62.5821648,44.6515536 62.5821648,37.7692373 C62.5821648,30.886921 56.9439471,25.3077013 49.988853,25.3077013 C43.0337589,25.3077013 37.3955412,30.886921 37.3955412,37.7692373 C37.3955411,40.0633427 35.5161352,41.9230825 33.1977706,41.9230825 C30.879406,41.9230825 29,40.0633427 29,37.7692373 C29,26.2987102 38.3970296,17 49.988853,17 Z" id="Combined-Shape" fill="inherit" fill-rule="nonzero"></path>
    </g>
</svg>