<?xml version="1.0" encoding="UTF-8"?>
<svg width="100px" height="100px" viewBox="0 0 100 100" version="1.1" xmlns="http://www.w3.org/2000/svg" xmlns:xlink="http://www.w3.org/1999/xlink">
    <title>icon_emoticon</title>
    <g id="icon_emoticon" stroke="none" stroke-width="1" fill="none" fill-rule="evenodd">
        <path d="M50.5,1 C77.8263143,1.02842053 99.9715795,23.1736857 100,50.5 C100,77.8380951 77.8380951,100 50.5,100 C23.1619049,100 1,77.8380951 1,50.5 C1,23.1619049 23.1619049,1 50.5,1 Z M50.5,9.25 C27.7182541,9.25 9.25,27.7182541 9.25,50.5 C9.25,73.2817459 27.7182541,91.75 50.5,91.75 C73.2817459,91.75 91.75,73.2817459 91.75,50.5 C91.75,27.7182541 73.2817459,9.25 50.5,9.25 Z M64.0047592,60.170766 C65.6050173,58.609866 68.1995483,58.609866 69.7998064,60.170766 C71.4000645,61.7316661 71.4000645,64.262385 69.7998064,65.823285 L69.7998064,65.823285 L67.3937356,68.1601922 C62.9178631,72.5389478 56.8392931,75 50.5000467,75 C44.1608002,75 38.0822302,72.5389478 33.6063578,68.1601922 L33.6063578,68.1601922 L31.2002869,65.823285 C30.1651014,64.8135598 29.7608155,63.3418531 30.1397197,61.9625428 C30.5186238,60.5832324 31.6231536,59.5058684 33.0372433,59.1362833 C34.4513329,58.7666982 35.9601487,59.1610408 36.9953341,60.170766 L36.9953341,60.170766 L39.3911664,62.51766 C45.5999437,68.2878017 55.3591953,68.2878017 61.5679726,62.51766 L61.5679726,62.51766 L63.9638048,60.170766 Z M33.5,30 C40.4035593,30 46,35.372583 46,42 C46,44.209139 44.1345198,46 41.8333333,46 C39.5321469,46 37.6666667,44.209139 37.6666667,42 C37.6666667,39.7908609 35.8011865,38 33.5,38 C31.1988135,38 29.3333333,39.7908609 29.3333333,42 C29.3333333,44.209139 27.4678531,46 25.1666667,46 C22.8654802,46 21,44.209139 21,42 C21,35.372583 26.5964407,30 33.5,30 Z M66.5,30 C73.4035594,30 79,35.372583 79,42 C79,44.209139 77.1345198,46 74.8333333,46 C72.5321469,46 70.6666667,44.209139 70.6666667,42 C70.6666667,39.790861 68.8011865,38 66.5,38 C64.1988135,38 62.3333333,39.790861 62.3333333,42 C62.3333333,44.209139 60.4678531,46 58.1666667,46 C55.8654802,46 54,44.209139 54,42 C54,35.372583 59.5964406,30 66.5,30 Z" id="Combined-Shape" fill="inherit" fill-rule="nonzero"></path>
    </g>
</svg>